<?xml version="1.0" encoding="UTF-8"?>
<svg version="1.1" xmlns="http://www.w3.org/2000/svg" width="626" height="626">
<path d="M0 0 C206.58 0 413.16 0 626 0 C626 206.58 626 413.16 626 626 C419.42 626 212.84 626 0 626 C0 419.42 0 212.84 0 0 Z " fill="#FEFEFE" transform="translate(0,0)"/>
<path d="M0 0 C0.66687836 -0.00163147 1.33375671 -0.00326294 2.02084351 -0.00494385 C14.1800443 -0.00157694 26.27579405 0.65170747 37.6875 5.125 C38.34967529 5.3837793 39.01185059 5.64255859 39.6940918 5.90917969 C46.6792172 8.71303828 53.23807718 12.20038478 59.5 16.375 C59.5 17.035 59.5 17.695 59.5 18.375 C60.180625 18.560625 60.86125 18.74625 61.5625 18.9375 C69.00077598 22.5775074 74.4828362 30.31659354 78.5 37.375 C79.1953125 40.1796875 79.1953125 40.1796875 79.5 42.375 C80.16 42.375 80.82 42.375 81.5 42.375 C91.72678092 61.74060641 92.41674467 80.82403493 91.5 102.375 C91.45697754 103.46699707 91.41395508 104.55899414 91.36962891 105.68408203 C90.9047712 113.90819994 89.23167146 121.55210314 87.125 129.5 C86.82078125 130.68464844 86.5165625 131.86929688 86.203125 133.08984375 C85.31752039 136.52250776 84.41226116 139.94933524 83.5 143.375 C83.22913574 144.4067334 82.95827148 145.4384668 82.67919922 146.50146484 C81.47254043 151.03615412 80.25774773 155.44059964 78.375 159.75 C76.74743835 163.49773839 75.1377368 167.24683477 73.59765625 171.03125 C66.20578653 189.00424429 57.0629235 206.06184595 46.5 222.375 C46.12697754 222.95233887 45.75395508 223.52967773 45.36962891 224.12451172 C23.07313878 258.49484762 -4.03681389 291.97151295 -35.5 318.375 C-36.47582031 319.22835938 -37.45164062 320.08171875 -38.45703125 320.9609375 C-58.31188839 338.30517606 -79.53042722 354.37280865 -102.5 367.375 C-103.20866211 367.7767041 -103.91732422 368.1784082 -104.64746094 368.59228516 C-109.19136584 371.15796508 -113.75587828 373.68374444 -118.33496094 376.18603516 C-120.36865663 377.30287075 -122.39211588 378.4362932 -124.4140625 379.57421875 C-132.3130461 383.97447619 -140.32220871 387.52249151 -148.88232422 390.46337891 C-151.97659131 391.54097575 -155.05079223 392.6700776 -158.12890625 393.79296875 C-193.17144698 406.31282302 -233.98894093 414.03420506 -269.32421875 398.1015625 C-288.79675812 388.04584317 -302.56664857 372.69296494 -309.54980469 351.93310547 C-317.71247303 326.06557513 -315.42573834 299.4588983 -309.5 273.375 C-309.17 273.375 -308.84 273.375 -308.5 273.375 C-308.56928711 274.0146167 -308.63857422 274.6542334 -308.70996094 275.31323242 C-310.34947618 291.62232488 -311.64235781 309.59994747 -306.5 325.375 C-306.29600586 326.014375 -306.09201172 326.65375 -305.88183594 327.3125 C-299.24696337 347.70966283 -287.86247873 361.89988355 -268.875 372.0625 C-261.34200499 375.73411312 -253.67576528 377.67590241 -245.5 379.375 C-244.72116455 379.5493457 -243.9423291 379.72369141 -243.13989258 379.90332031 C-224.70872216 383.19648791 -205.39836035 379.83208013 -187.5 375.375 C-186.69981445 375.18808594 -185.89962891 375.00117188 -185.07519531 374.80859375 C-165.34915883 370.19531541 -146.29156087 361.97508579 -128.5 352.375 C-127.45634277 351.8190918 -127.45634277 351.8190918 -126.39160156 351.25195312 C-109.5264306 342.2381979 -93.45390246 332.30732887 -78.5 320.375 C-77.43880342 319.56428641 -76.37496028 318.7570262 -75.30859375 317.953125 C-53.75304852 301.69545956 -32.90167776 283.05579477 -15.5 262.375 C-14.59120311 261.32824533 -13.68090096 260.28279662 -12.76953125 259.23828125 C-6.04198527 251.50583113 0.41820107 243.62805372 6.5 235.375 C7.18763428 234.44228271 7.18763428 234.44228271 7.88916016 233.49072266 C21.57567827 214.79276204 33.15414088 195.09448702 43.5 174.375 C44.04527344 173.29629639 44.04527344 173.29629639 44.6015625 172.19580078 C49.26394753 162.92380379 52.71341318 153.42434632 55.8046875 143.5390625 C56.44255709 141.55378299 57.14033681 139.58801356 57.84375 137.625 C68.0176242 108.34409378 69.95407971 73.61142272 56.89453125 44.921875 C54.88473712 41.25132661 52.56353907 37.87416506 50.05078125 34.53125 C48.61811657 32.53923261 47.52571474 30.59822406 46.5 28.375 C45.84 28.375 45.18 28.375 44.5 28.375 C43.860625 27.715 43.22125 27.055 42.5625 26.375 C27.96012349 11.39058457 7.61202061 5.72810874 -12.78515625 5.09765625 C-20.13981874 5.00510165 -27.2770486 4.9270845 -34.5 6.375 C-36.83301986 6.41324623 -39.16711508 6.42074284 -41.5 6.375 C-30.36197975 -1.05034683 -12.95577673 -0.01478732 0 0 Z " fill="#0F56CA" transform="translate(424.5,109.625)"/>
<path d="M0 0 C0.66 0 1.32 0 2 0 C7.00354959 11.79876323 11.54938073 23.38347054 14 36 C14.2638147 37.29599121 14.2638147 37.29599121 14.53295898 38.61816406 C16.04555983 46.68626535 16.34948773 54.5533109 16.3125 62.75 C16.31001251 63.41118835 16.30752502 64.07237671 16.30496216 64.75360107 C16.14595951 92.10783845 6.82390585 118.93497985 -8.45703125 141.6640625 C-9.92759128 143.8903787 -11.19234233 146.14206023 -12.4375 148.5 C-16.87938938 156.65560017 -22.83595322 163.91744545 -28.65234375 171.125 C-30.18590455 173.06287372 -30.18590455 173.06287372 -31 176 C-31.66 176 -32.32 176 -33 176 C-33 176.66 -33 177.32 -33 178 C-33.66 178 -34.32 178 -35 178 C-35.28875 178.763125 -35.5775 179.52625 -35.875 180.3125 C-37 183 -37 183 -39 186 C-39.66 186 -40.32 186 -41 186 C-41 186.66 -41 187.32 -41 188 C-41.66 188 -42.32 188 -43 188 C-43.28875 188.763125 -43.5775 189.52625 -43.875 190.3125 C-45 193 -45 193 -47 196 C-47.66 196 -48.32 196 -49 196 C-49 196.66 -49 197.32 -49 198 C-49.66 198 -50.32 198 -51 198 C-51.103125 198.5775 -51.20625 199.155 -51.3125 199.75 C-52.10896465 202.35661158 -53.19065277 203.9735311 -55 206 C-55.66 206 -56.32 206 -57 206 C-57 206.66 -57 207.32 -57 208 C-57.66 208 -58.32 208 -59 208 C-59.103125 208.5775 -59.20625 209.155 -59.3125 209.75 C-60.10896465 212.35661158 -61.19065277 213.9735311 -63 216 C-63.66 216 -64.32 216 -65 216 C-65 216.66 -65 217.32 -65 218 C-65.66 218 -66.32 218 -67 218 C-67.144375 218.61875 -67.28875 219.2375 -67.4375 219.875 C-68 222 -68 222 -69 224 C-69.66 224 -70.32 224 -71 224 C-71 224.66 -71 225.32 -71 226 C-71.66 226 -72.32 226 -73 226 C-73.144375 226.61875 -73.28875 227.2375 -73.4375 227.875 C-74 230 -74 230 -75 232 C-75.66 232 -76.32 232 -77 232 C-77 232.66 -77 233.32 -77 234 C-77.66 234 -78.32 234 -79 234 C-79.144375 234.61875 -79.28875 235.2375 -79.4375 235.875 C-80 238 -80 238 -81 240 C-81.66 240 -82.32 240 -83 240 C-83.144375 240.61875 -83.28875 241.2375 -83.4375 241.875 C-84 244 -84 244 -85 246 C-85.66 246 -86.32 246 -87 246 C-87.66 247.98 -88.32 249.96 -89 252 C-89.66 252 -90.32 252 -91 252 C-91 253.32 -91 254.64 -91 256 C-91.66 256 -92.32 256 -93 256 C-93 257.32 -93 258.64 -93 260 C-93.66 260 -94.32 260 -95 260 C-95 261.32 -95 262.64 -95 264 C-95.66 264 -96.32 264 -97 264 C-97 265.32 -97 266.64 -97 268 C-97.66 268 -98.32 268 -99 268 C-99 269.32 -99 270.64 -99 272 C-99.66 272 -100.32 272 -101 272 C-101 273.32 -101 274.64 -101 276 C-101.66 276 -102.32 276 -103 276 C-103 277.32 -103 278.64 -103 280 C-103.66 280 -104.32 280 -105 280 C-104.938125 281.11375 -104.87625 282.2275 -104.8125 283.375 C-104.80093257 286.70642021 -105.31888456 289.2472209 -106.4375 292.375 C-108.96560605 299.95931815 -108.7497809 308.0792711 -109 316 C-109.66 316 -110.32 316 -111 316 C-111 315.34 -111 314.68 -111 314 C-111.66 314 -112.32 314 -113 314 C-113 313.34 -113 312.68 -113 312 C-113.66 312 -114.32 312 -115 312 C-115 311.34 -115 310.68 -115 310 C-115.66 310 -116.32 310 -117 310 C-117 308.68 -117 307.36 -117 306 C-117.66 306 -118.32 306 -119 306 C-119 305.34 -119 304.68 -119 304 C-119.66 304 -120.32 304 -121 304 C-121 302.68 -121 301.36 -121 300 C-121.66 300 -122.32 300 -123 300 C-123 299.34 -123 298.68 -123 298 C-123.66 298 -124.32 298 -125 298 C-125 296.68 -125 295.36 -125 294 C-125.66 294 -126.32 294 -127 294 C-128.76462683 290.91190305 -129 289.76687864 -129 286 C-129.66 286 -130.32 286 -131 286 C-131 284.02 -131 282.04 -131 280 C-131.66 280 -132.32 280 -133 280 C-135.40304176 270.97741648 -135.47843398 261.89302614 -135.5 252.625 C-135.50367584 251.82818817 -135.50735168 251.03137634 -135.51113892 250.2104187 C-135.5221565 235.35665538 -133.93261604 221.92392502 -126 209 C-125.47215147 207.57965396 -124.99034253 206.14110164 -124.5625 204.6875 C-123.14033393 200.17893096 -121.20346362 196.17898273 -119 192 C-118.34 192 -117.68 192 -117 192 C-116.87496094 191.41734375 -116.74992187 190.8346875 -116.62109375 190.234375 C-113.67112083 179.62189379 -105.08267224 169.12400835 -99 160 C-98.34 160 -97.68 160 -97 160 C-96.90203125 159.43667969 -96.8040625 158.87335938 -96.703125 158.29296875 C-95.83903547 155.47507679 -94.51620153 153.67609323 -92.75 151.3125 C-91.67105469 149.86423828 -91.67105469 149.86423828 -90.5703125 148.38671875 C-89.71472187 147.25691777 -88.85785508 146.12808255 -88 145 C-87.50854492 144.35240723 -87.01708984 143.70481445 -86.51074219 143.03759766 C-82.69137185 138.01155164 -78.8481557 133.00402065 -75 128 C-74.06240167 126.77872132 -73.12489549 125.55737188 -72.1875 124.3359375 C-68.6381653 119.71370252 -65.08136809 115.09747718 -61.5 110.5 C-60.94570312 109.78714844 -60.39140625 109.07429688 -59.8203125 108.33984375 C-58.48391481 106.62202783 -57.14501054 104.90616118 -55.8046875 103.19140625 C-38.32072795 80.6758892 -21.95290867 57.44687726 -9 32 C-8.43410156 30.89527344 -7.86820312 29.79054687 -7.28515625 28.65234375 C-3.11567037 19.6416919 -1.69977875 9.71714061 0 0 Z " fill="#53B010" transform="translate(285,148)"/>
<path d="M0 0 C0.33 0 0.66 0 1 0 C1.01401855 0.87398437 1.01401855 0.87398437 1.02832031 1.765625 C1.60472593 30.51809345 9.14062944 52.43542519 28.921875 73.7109375 C31 76 31 76 33.078125 78.6640625 C34.96231242 81.18439652 34.96231242 81.18439652 38 83 C36.60434289 87.23223587 34.63895179 89.74291246 31.5625 92.9375 C12.76070632 113.11899365 -1.60605862 135.97642662 -13 161 C-29.70704892 140.2004463 -32.06026273 103.35289343 -30 78 C-26.96158841 52.66533072 -18.90266497 18.90266497 0 0 Z " fill="#0E55C8" transform="translate(154,178)"/>
<path d="M0 0 C0.99 0.66 1.98 1.32 3 2 C3 2.66 3 3.32 3 4 C3.66 4 4.32 4 5 4 C20.23507507 30.25619321 23.27276657 59.51152008 15.82666016 89.04931641 C6.84354053 121.11369436 -8.55618907 150.10962318 -28 177 C-28.73476563 178.01835937 -29.46953125 179.03671875 -30.2265625 180.0859375 C-39.14483139 192.18235313 -48.6441372 203.80750969 -58.953125 214.7421875 C-61.02316051 216.82180661 -61.02316051 216.82180661 -62 219 C-62.66 219 -63.32 219 -64 219 C-64.25523437 219.57975586 -64.51046875 220.15951172 -64.7734375 220.75683594 C-66.12584777 223.23015312 -67.63732524 224.89602109 -69.625 226.890625 C-70.33140625 227.59960938 -71.0378125 228.30859375 -71.765625 229.0390625 C-72.50296875 229.76867187 -73.2403125 230.49828125 -74 231.25 C-74.73734375 231.99507812 -75.4746875 232.74015625 -76.234375 233.5078125 C-76.94078125 234.21164062 -77.6471875 234.91546875 -78.375 235.640625 C-79.02210938 236.28547852 -79.66921875 236.93033203 -80.3359375 237.59472656 C-82 239 -82 239 -84 239 C-84 239.66 -84 240.32 -84 241 C-85.2578125 242.3046875 -85.2578125 242.3046875 -87.125 243.875 C-87.85976563 244.49761719 -88.59453125 245.12023437 -89.3515625 245.76171875 C-90.22554687 246.50035156 -91.09953125 247.23898437 -92 248 C-93.03015093 248.90062509 -94.05870481 249.8030791 -95.0859375 250.70703125 C-127.45971648 279.07434197 -165.31704379 303.29693521 -207 315 C-208.16789062 315.32871094 -209.33578125 315.65742188 -210.5390625 315.99609375 C-216.35616673 317.53504917 -222.00405881 318.50033823 -228 319 C-225.04154911 317.02769941 -222.47668618 315.98940181 -219.1484375 314.77734375 C-212.09000299 312.10381271 -205.36503213 308.951383 -198.625 305.5625 C-198.02527374 305.26175568 -197.42554749 304.96101135 -196.80764771 304.65115356 C-165.57240225 288.9324101 -137.42648838 268.54079446 -110.640625 246.203125 C-109.66609375 245.39359375 -108.6915625 244.5840625 -107.6875 243.75 C-106.84574219 243.04359375 -106.00398438 242.3371875 -105.13671875 241.609375 C-103 240 -103 240 -100 239 C-100 238.34 -100 237.68 -100 237 C-98.52905273 235.53051758 -98.52905273 235.53051758 -96.49609375 233.83203125 C-85.98818752 224.89164107 -76.0426428 215.4246316 -67 205 C-65.33628185 203.18479314 -63.6694946 201.37239552 -62 199.5625 C-21.11161082 154.52236669 10.63155736 98.26513193 8 36 C7.13774976 23.66256901 3.66655661 11.75378431 0 0 Z " fill="#0B3CBD" transform="translate(457,150)"/>
<path d="M0 0 C8.58 0 17.16 0 26 0 C26 11.55 26 23.1 26 35 C37.55 35 49.1 35 61 35 C61 43.58 61 52.16 61 61 C49.45 61 37.9 61 26 61 C26 72.55 26 84.1 26 96 C17.42 96 8.84 96 0 96 C0 84.78 0 73.56 0 62 C-11.55 62 -23.1 62 -35 62 C-35 53.09 -35 44.18 -35 35 C-23.45 35 -11.9 35 0 35 C0 23.45 0 11.9 0 0 Z " fill="#1769D1" transform="translate(368,148)"/>
<path d="M0 0 C6.28790957 3.47273437 11.16993703 7.86118403 13.76171875 14.671875 C15.79694194 23.24256647 15.40695065 31.52368871 10.9453125 39.19921875 C6.99306806 44.59135123 1.23039843 49.5291665 -5.55541992 50.63842773 C-7.70830708 50.79453672 -9.82596377 50.83868907 -11.984375 50.8203125 C-12.73879883 50.81604248 -13.49322266 50.81177246 -14.27050781 50.80737305 C-20.2158142 50.62504516 -24.19835 49.46644566 -28.609375 45.3203125 C-29.49625 44.5984375 -30.383125 43.8765625 -31.296875 43.1328125 C-37.06899383 36.11266797 -39.48857246 29.65311362 -39.08984375 20.50390625 C-37.97022247 13.08527744 -34.52978919 7.11590817 -28.55078125 2.5703125 C-19.10990765 -3.50831839 -10.39529267 -4.67461274 0 0 Z " fill="#1059CA" transform="translate(225.609375,150.6796875)"/>
<path d="M0 0 C0.99 0.66 1.98 1.32 3 2 C3 2.66 3 3.32 3 4 C3.66 4 4.32 4 5 4 C20.23507507 30.25619321 23.27276657 59.51152008 15.82666016 89.04931641 C7.57504593 118.50265649 -6.1603052 144.93097312 -23 170.3125 C-23.43231934 170.98240967 -23.86463867 171.65231934 -24.31005859 172.3425293 C-26.27204205 175.21436823 -27.44872466 176.82006986 -30.8125 177.91796875 C-31.8953125 177.95857422 -31.8953125 177.95857422 -33 178 C-33 179.32 -33 180.64 -33 182 C-34.32 182.33 -35.64 182.66 -37 183 C-37 183.99 -37 184.98 -37 186 C-40.75 187.125 -40.75 187.125 -43 186 C-43 186.66 -43 187.32 -43 188 C-43.66 188 -44.32 188 -45 188 C-45 187.34 -45 186.68 -45 186 C-45.99 185.67 -46.98 185.34 -48 185 C-47.195625 184.7525 -46.39125 184.505 -45.5625 184.25 C-44.2940625 183.63125 -44.2940625 183.63125 -43 183 C-42.40929986 181.05396726 -42.40929986 181.05396726 -42 179 C-41.319375 178.505 -40.63875 178.01 -39.9375 177.5 C-39.298125 177.005 -38.65875 176.51 -38 176 C-38 174.68 -38 173.36 -38 172 C-37.34 172 -36.68 172 -36 172 C-35.938125 171.4225 -35.87625 170.845 -35.8125 170.25 C-34.68893916 167.13860075 -32.54804465 166.03843572 -30 164 C-28.99734377 161.45479572 -29 159.76943112 -29 157 C-27.80414785 154.86196131 -26.56293021 152.81432092 -25.25 150.75 C-0.89245056 111.11654063 15.6231269 65.68250865 5.3046875 18.84375 C3.78095974 12.49221112 1.9447599 6.23426579 0 0 Z " fill="#2081DB" transform="translate(457,150)"/>
<path d="M0 0 C0 0.99 0 1.98 0 3 C-0.66 3 -1.32 3 -2 3 C-2 3.66 -2 4.32 -2 5 C-2.66 5 -3.32 5 -4 5 C-4 6.98 -4 8.96 -4 11 C-3.34 11 -2.68 11 -2 11 C-2.06640625 13.20703125 -2.06640625 13.20703125 -3 16 C-5.30417138 17.80630036 -7.42458297 19.23441053 -9.9375 20.6875 C-10.65043213 21.11466309 -11.36336426 21.54182617 -12.09790039 21.98193359 C-14.38707348 23.34214884 -16.69095101 24.67384393 -19 26 C-19.74121094 26.43038574 -20.48242188 26.86077148 -21.24609375 27.30419922 C-44.9445353 41.01201921 -71.35226301 53.69602192 -99 56 C-96.04154911 54.02769941 -93.47668618 52.98940181 -90.1484375 51.77734375 C-83.09000299 49.10381271 -76.36503213 45.951383 -69.625 42.5625 C-69.02527374 42.26175568 -68.42554749 41.96101135 -67.80764771 41.65115356 C-45.262968 30.30582774 -24.05125395 16.51459932 -3.93359375 1.29296875 C-2 0 -2 0 0 0 Z " fill="#0A30B7" transform="translate(328,413)"/>
<path d="M0 0 C1.00031754 -0.0024472 1.00031754 -0.0024472 2.02084351 -0.00494385 C14.38181331 -0.00152107 26.70103273 0.6525478 38.25 5.375 C38.93320312 5.63539062 39.61640625 5.89578125 40.3203125 6.1640625 C43.19295831 7.28814129 45.29698703 8.17198703 47.5 10.375 C44.83333333 10.375 42.16666667 10.375 39.5 10.375 C38.84 10.705 38.18 11.035 37.5 11.375 C37.5 10.385 37.5 9.395 37.5 8.375 C36.84 8.375 36.18 8.375 35.5 8.375 C35.5 7.715 35.5 7.055 35.5 6.375 C34.2625 6.375 33.025 6.375 31.75 6.375 C29 6.375 26.25 6.375 23.5 6.375 C23.5 5.715 23.5 5.055 23.5 4.375 C21.52 4.375 19.54 4.375 17.5 4.375 C17.5 3.715 17.5 3.055 17.5 2.375 C16.18 2.375 14.86 2.375 13.5 2.375 C13.5 3.695 13.5 5.015 13.5 6.375 C14.16 6.375 14.82 6.375 15.5 6.375 C15.5 7.035 15.5 7.695 15.5 8.375 C17.15 8.375 18.8 8.375 20.5 8.375 C20.17 9.035 19.84 9.695 19.5 10.375 C18.695625 10.21064453 18.695625 10.21064453 17.875 10.04296875 C16.15125422 9.69425044 14.42573948 9.35424029 12.69921875 9.01953125 C10.48595827 8.57363628 8.2802375 8.08922707 6.08203125 7.57421875 C-7.01761087 4.70994467 -21.29265796 3.70352396 -34.5 6.375 C-36.83301986 6.41324623 -39.16711508 6.42074284 -41.5 6.375 C-30.36197975 -1.05034683 -12.95577673 -0.01478732 0 0 Z " fill="#39BDF3" transform="translate(424.5,109.625)"/>
<path d="M0 0 C1.485 0.99 1.485 0.99 3 2 C3 2.66 3 3.32 3 4 C3.66 4 4.32 4 5 4 C15.0633752 21.34326364 19.39787317 36.64134651 19.125 56.75 C19.11597656 58.03132813 19.10695313 59.31265625 19.09765625 60.6328125 C19.07435327 63.75541221 19.04164054 66.87760025 19 70 C17.06133024 66.72428319 16.71798124 64.17688198 16.62109375 60.39453125 C16.58693359 59.32912109 16.55277344 58.26371094 16.51757812 57.16601562 C16.49115234 56.05935547 16.46472656 54.95269531 16.4375 53.8125 C16.37785092 51.61056066 16.31427 49.40872307 16.24609375 47.20703125 C16.22216553 46.2322583 16.1982373 45.25748535 16.17358398 44.25317383 C16.24822112 42.03132002 16.24822112 42.03132002 15 41 C14.92773498 39.14712498 14.9161878 37.29166122 14.9375 35.4375 C14.94652344 34.42558594 14.95554687 33.41367188 14.96484375 32.37109375 C14.97644531 31.58863281 14.98804688 30.80617187 15 30 C14.34 30 13.68 30 13 30 C12.67 29.01 12.34 28.02 12 27 C11.67 39.87 11.34 52.74 11 66 C10.01 66.495 10.01 66.495 9 67 C8.98018066 66.1342334 8.96036133 65.2684668 8.93994141 64.37646484 C8.8607555 61.0922184 8.77404536 57.80833425 8.68261719 54.52441406 C8.64487963 53.11661138 8.60994305 51.70873016 8.578125 50.30078125 C8.17950606 32.86120263 5.19522832 16.6542071 0 0 Z " fill="#25A7F0" transform="translate(457,150)"/>
<path d="M0 0 C0.33 0 0.66 0 1 0 C0.93071289 0.6396167 0.86142578 1.2792334 0.79003906 1.93823242 C-0.89156255 18.6659794 -1.4357076 35.69641516 3 52 C3.43200486 54.66802999 3.73099124 57.30991243 4 60 C3.01 59.67 2.02 59.34 1 59 C0.67 57.02 0.34 55.04 0 53 C-0.33 56.96 -0.66 60.92 -1 65 C-0.67 65 -0.34 65 0 65 C0.19335938 65.78503906 0.38671875 66.57007813 0.5859375 67.37890625 C1.96653221 72.9491275 3.37388447 78.49622437 5 84 C4.01 84.99 4.01 84.99 3 86 C-8.26254677 57.91040707 -6.60166492 29.05919 0 0 Z " fill="#0C2BAD" transform="translate(115,383)"/>
<path d="M0 0 C0.66 0 1.32 0 2 0 C12.22703778 19.36609281 12.91577661 38.44862415 12 60 C11.95770264 61.08619629 11.91540527 62.17239258 11.87182617 63.29150391 C11.40024001 71.67795233 9.6791299 79.51197053 7.5625 87.625 C7.09360352 89.50251953 7.09360352 89.50251953 6.61523438 91.41796875 C4.27640345 100.58539482 4.27640345 100.58539482 2 104 C2 100.7 2 97.4 2 94 C2.66 94 3.32 94 4 94 C4 92.02 4 90.04 4 88 C4.66 88 5.32 88 6 88 C6 85.36 6 82.72 6 80 C6.66 80 7.32 80 8 80 C8 75.38 8 70.76 8 66 C8.66 66 9.32 66 10 66 C9.67 55.11 9.34 44.22 9 33 C8.67 33 8.34 33 8 33 C8 28.71 8 24.42 8 20 C7.34 20 6.68 20 6 20 C6 18.35 6 16.7 6 15 C5.34 15 4.68 15 4 15 C2.57741188 11.17679443 1.75957724 8.08718695 2 4 C1.34 4 0.68 4 0 4 C0 2.68 0 1.36 0 0 Z " fill="#2498E2" transform="translate(504,152)"/>
<path d="M0 0 C0.495 0.99 0.495 0.99 1 2 C0.01 2.66 -0.98 3.32 -2 4 C-1.505 5.485 -1.505 5.485 -1 7 C-5.5 8.5 -5.5 8.5 -10 10 C-10.33 11.65 -10.66 13.3 -11 15 C-11.66 15 -12.32 15 -13 15 C-13 14.34 -13 13.68 -13 13 C-13.66 13 -14.32 13 -15 13 C-15 13.66 -15 14.32 -15 15 C-16.5778125 15.1546875 -16.5778125 15.1546875 -18.1875 15.3125 C-21.91317253 15.98434259 -24.08502393 16.61501958 -27 19 C-27 20.32 -27 21.64 -27 23 C-28.32 23 -29.64 23 -31 23 C-31 22.34 -31 21.68 -31 21 C-32.0725 21.495 -33.145 21.99 -34.25 22.5 C-37.25416808 23.88653911 -38.45934895 24 -42 24 C-42.23074219 24.61488281 -42.46148437 25.22976563 -42.69921875 25.86328125 C-44.38134744 28.62641757 -45.80613141 29.08321169 -48.8125 30.1875 C-50.09060547 30.67283203 -50.09060547 30.67283203 -51.39453125 31.16796875 C-53.91840272 31.9739427 -56.39348622 32.53672376 -59 33 C-59 32.34 -59 31.68 -59 31 C-59.99 30.67 -60.98 30.34 -62 30 C-61.44763672 29.79955078 -60.89527344 29.59910156 -60.32617188 29.39257812 C-48.87632667 25.20916326 -37.77719875 20.77153667 -27.00195312 15.06054688 C-24.84618483 13.91851547 -22.68145741 12.794693 -20.515625 11.671875 C-19.00992624 10.88635601 -17.50470604 10.09991893 -16 9.3125 C-15.31776367 8.95615479 -14.63552734 8.59980957 -13.93261719 8.23266602 C-9.14869865 5.69845367 -4.55624832 2.92263335 0 0 Z " fill="#1130B7" transform="translate(319,449)"/>
<path d="M0 0 C0.33 0 0.66 0 1 0 C1 5.61 1 11.22 1 17 C-10.55 17 -22.1 17 -34 17 C-34 28.55 -34 40.1 -34 52 C-42.58 52 -51.16 52 -60 52 C-59.67 40.78 -59.34 29.56 -59 18 C-56.22132308 20.77867692 -56.34806098 23.1713292 -56 27 C-56.33 27.33 -56.66 27.66 -57 28 C-57.15655027 29.48638992 -57.25066943 30.97949127 -57.31640625 32.47265625 C-57.35830078 33.37177734 -57.40019531 34.27089844 -57.44335938 35.19726562 C-57.48267578 36.14279297 -57.52199219 37.08832031 -57.5625 38.0625 C-57.60568359 39.01189453 -57.64886719 39.96128906 -57.69335938 40.93945312 C-57.79979276 43.29281353 -57.90181008 45.64628354 -58 48 C-55.27498092 48.90833969 -53.37766029 49.18359985 -50.55078125 49.31640625 C-49.78677002 49.35451416 -49.02275879 49.39262207 -48.2355957 49.43188477 C-47.27097412 49.47498779 -46.30635254 49.51809082 -45.3125 49.5625 C-42.239375 49.706875 -39.16625 49.85125 -36 50 C-36 38.78 -36 27.56 -36 16 C-24.12 16 -12.24 16 0 16 C0 10.72 0 5.44 0 0 Z " fill="#122DB7" transform="translate(428,192)"/>
<path d="M0 0 C0 3.66184524 -0.919642 5.02806 -3 8 C-4.32848691 9.00642948 -5.66150329 10.00692179 -7 11 C-8.24643549 13.03365791 -8.93576952 14.65743745 -9.375 17 C-10.22941922 19.7341415 -11.96676432 21.03030293 -14 23 C-14.33 23.99 -14.66 24.98 -15 26 C-15.99 26.33 -16.98 26.66 -18 27 C-17.67 27.99 -17.34 28.98 -17 30 C-16.34 30 -15.68 30 -15 30 C-15 29.34 -15 28.68 -15 28 C-13.02 28 -11.04 28 -9 28 C-9 27.01 -9 26.02 -9 25 C-7.68 24.67 -6.36 24.34 -5 24 C-5 22.68 -5 21.36 -5 20 C-4.01 20 -3.02 20 -2 20 C-3.57388218 25.130059 -6.76968615 28.74486315 -10.125 32.8125 C-10.68832031 33.50537109 -11.25164062 34.19824219 -11.83203125 34.91210938 C-13.215914 36.61264326 -14.60529551 38.30833994 -16 40 C-16.12246094 39.36578125 -16.24492187 38.7315625 -16.37109375 38.078125 C-16.80696091 35.80283433 -16.80696091 35.80283433 -19.0625 34.75 C-19.701875 34.5025 -20.34125 34.255 -21 34 C-21 33.34 -21 32.68 -21 32 C-21.66 32 -22.32 32 -23 32 C-23 32.66 -23 33.32 -23 34 C-23.66 34 -24.32 34 -25 34 C-25 34.66 -25 35.32 -25 36 C-25.99 35.67 -26.98 35.34 -28 35 C-24.71675728 30.50646389 -21.31492377 26.14910932 -17.75 21.875 C-13.68139576 16.95819521 -9.96791176 11.85583182 -6.36230469 6.59521484 C-4.38908224 3.75599379 -2.91522922 1.94348615 0 0 Z " fill="#1955C6" transform="translate(429,308)"/>
<path d="M0 0 C3.169433 1.04838825 6.32965523 2.11543483 9.48046875 3.21875 C10.70378906 3.6415625 11.92710937 4.064375 13.1875 4.5 C15.00314453 5.13421875 15.00314453 5.13421875 16.85546875 5.78125 C26.64983114 8.83264478 36.16699079 9.28990347 46.375 9.1875 C47.61894531 9.18685547 48.86289063 9.18621094 50.14453125 9.18554688 C55.2541453 9.16079632 59.99829751 9.09471224 65 8 C66.60303627 7.93628632 68.20837672 7.91355786 69.8125 7.9375 C70.99779297 7.95103516 70.99779297 7.95103516 72.20703125 7.96484375 C73.09455078 7.98224609 73.09455078 7.98224609 74 8 C68.54199052 13.00317535 61.27244083 13.2521971 54.21875 13.1953125 C53.51979614 13.1924826 52.82084229 13.18965271 52.10070801 13.18673706 C49.90028684 13.1756727 47.70029507 13.15059606 45.5 13.125 C43.99479761 13.11495235 42.48958874 13.10582965 40.984375 13.09765625 C37.32278062 13.07577893 33.66143232 13.04134696 30 13 C30 12.34 30 11.68 30 11 C26.7 11 23.4 11 20 11 C20 10.34 20 9.68 20 9 C18.5459375 9.0309375 18.5459375 9.0309375 17.0625 9.0625 C14 9 14 9 13 8 C11.48530552 7.76807135 9.96245438 7.58784762 8.4375 7.4375 C7.61121094 7.35371094 6.78492188 7.26992188 5.93359375 7.18359375 C5.29550781 7.12300781 4.65742188 7.06242187 4 7 C3.67 6.01 3.34 5.02 3 4 C2.01979625 2.9805881 1.02196992 1.97753644 0 1 C0 0.67 0 0.34 0 0 Z " fill="#0E28AE" transform="translate(152,481)"/>
<path d="M0 0 C0.33 0 0.66 0 1 0 C1.02505615 0.61407715 1.0501123 1.2281543 1.07592773 1.86083984 C1.19345264 4.69902634 1.31545526 7.5370044 1.4375 10.375 C1.47681641 11.34050781 1.51613281 12.30601562 1.55664062 13.30078125 C1.82980822 19.56262312 2.30323128 25.77097309 3 32 C2.67 31.34 2.34 30.68 2 30 C1.34 30 0.68 30 0 30 C-0.33 26.37 -0.66 22.74 -1 19 C-1.33 19 -1.66 19 -2 19 C-2.33 16.03 -2.66 13.06 -3 10 C-9.17486852 17.61465881 -9.17486852 17.61465881 -11 27 C-12.09375 28.921875 -12.09375 28.921875 -13.5 30.75 C-13.9640625 31.36359375 -14.428125 31.9771875 -14.90625 32.609375 C-15.44765625 33.29773438 -15.44765625 33.29773438 -16 34 C-16.66 33.67 -17.32 33.34 -18 33 C-14.79713604 21.04264121 -7.89564636 9.47477563 0 0 Z " fill="#2396E5" transform="translate(154,178)"/>
<path d="M0 0 C0 1.65 0 3.3 0 5 C0.99 5.33 1.98 5.66 3 6 C-24.79069767 14.98255814 -24.79069767 14.98255814 -37 16 C-34.10223924 14.06815949 -31.69933953 13.09976466 -28.4375 11.9375 C-21.70107688 9.41608796 -15.37460622 6.28147209 -9.00561523 2.94702148 C-7.90068726 2.37576538 -7.90068726 2.37576538 -6.7734375 1.79296875 C-6.11778809 1.4477417 -5.46213867 1.10251465 -4.78662109 0.74682617 C-3 0 -3 0 0 0 Z " fill="#1432BB" transform="translate(266,453)"/>
<path d="M0 0 C0.33 0 0.66 0 1 0 C1.15539437 7.92511273 0.0379298 12.31217877 -4 19 C-6.50406274 24.00812547 -6.13612289 29.76716551 -6.09765625 35.2421875 C-6.0962413 36.01055939 -6.09482635 36.77893127 -6.09336853 37.57058716 C-6.08780683 40.00543239 -6.0752616 42.44018294 -6.0625 44.875 C-6.05748004 46.53385283 -6.05291801 48.19270712 -6.04882812 49.8515625 C-6.03784998 53.9010777 -6.02061206 57.95052284 -6 62 C-6.99 62.495 -6.99 62.495 -8 63 C-9.49524139 60.00951721 -9.24455687 56.91678796 -9.30859375 53.6328125 C-9.32372009 52.88986435 -9.33884644 52.1469162 -9.35443115 51.38145447 C-9.39451703 48.96259893 -9.41947067 46.54411825 -9.4375 44.125 C-9.4436734 43.3082077 -9.4498468 42.49141541 -9.45620728 41.64987183 C-9.50277904 27.05924463 -8.51223581 12.4634742 0 0 Z " fill="#9FE41D" transform="translate(159,357)"/>
<path d="M0 0 C8.58 0 17.16 0 26 0 C26 11.88 26 23.76 26 36 C25.34 36 24.68 36 24 36 C24 24.45 24 12.9 24 1 C19.111875 1.185625 19.111875 1.185625 14.125 1.375 C12.58610107 1.42599854 12.58610107 1.42599854 11.01611328 1.47802734 C10.20899902 1.5136377 9.40188477 1.54924805 8.5703125 1.5859375 C7.74289551 1.6173584 6.91547852 1.6487793 6.06298828 1.68115234 C3.78013915 1.82599137 3.78013915 1.82599137 2 4 C1.73878652 6.18064067 1.73878652 6.18064067 1.83984375 8.69140625 C1.85080078 9.63693359 1.86175781 10.58246094 1.87304688 11.55664062 C1.89431641 12.54857422 1.91558594 13.54050781 1.9375 14.5625 C2.06238196 21.48651105 1.91474607 28.12876787 1 35 C0.67 35 0.34 35 0 35 C0 23.45 0 11.9 0 0 Z " fill="#20A5F2" transform="translate(368,148)"/>
<path d="M0 0 C1.32 0 2.64 0 4 0 C4 3.33333333 4 6.66666667 4 10 C4.66 10 5.32 10 6 10 C6.06058594 10.78246094 6.12117188 11.56492188 6.18359375 12.37109375 C6.30927734 13.88896484 6.30927734 13.88896484 6.4375 15.4375 C6.55931641 16.95150391 6.55931641 16.95150391 6.68359375 18.49609375 C6.73211468 20.93640779 6.73211468 20.93640779 8 22 C9.1393802 31.7480306 9.06992351 41.5196713 8.6875 51.3125 C8.65285645 52.30846191 8.61821289 53.30442383 8.58251953 54.33056641 C8.53853027 55.2694873 8.49454102 56.2084082 8.44921875 57.17578125 C8.41143311 58.01020752 8.37364746 58.84463379 8.3347168 59.7043457 C7.97563672 62.16709549 7.1238947 63.80124813 6 66 C6.020625 67.03125 6.04125 68.0625 6.0625 69.125 C6.041875 70.07375 6.02125 71.0225 6 72 C4.515 72.99 4.515 72.99 3 74 C3.48828125 70.09375 3.9765625 66.1875 4.46484375 62.28125 C4.55282227 61.5682373 4.64080078 60.85522461 4.73144531 60.12060547 C4.98579779 58.11214581 5.26369487 56.10670875 5.54296875 54.1015625 C7.49617714 38.23490249 5.61106211 23.56282844 1.55126953 8.203125 C0.87245523 5.49027281 0.39599433 2.76740868 0 0 Z " fill="#2C92DF" transform="translate(484,158)"/>
<path d="M0 0 C1.485 0.495 1.485 0.495 3 1 C2.505 1.5775 2.01 2.155 1.5 2.75 C-0.36980013 5.10400629 -0.36980013 5.10400629 0 9 C-1.093125 9.268125 -2.18625 9.53625 -3.3125 9.8125 C-6.93641817 10.9795245 -7.59796585 11.39883348 -10 14 C-11.96930566 15.73416469 -13.96133919 17.44015405 -15.953125 19.1484375 C-17.80517093 20.82376149 -19.41386842 22.56727815 -21.0625 24.4375 C-24 27 -24 27 -27.875 27.375 C-29.421875 27.189375 -29.421875 27.189375 -31 27 C-27.26886552 23.02012322 -23.18066392 19.70183993 -18.90234375 16.32421875 C-15.57829707 13.66229712 -12.31416064 10.93701237 -9.0625 8.1875 C-8.50691406 7.71940918 -7.95132812 7.25131836 -7.37890625 6.76904297 C-4.82119764 4.60078938 -2.31521168 2.42814883 0 0 Z " fill="#1434B4" transform="translate(376,405)"/>
<path d="M0 0 C0.33 0 0.66 0 1 0 C0.93433838 0.59466064 0.86867676 1.18932129 0.80102539 1.80200195 C-0.08927292 10.58807724 -0.32886468 19.36562104 -0.5625 28.1875 C-0.60580621 29.72722239 -0.64942381 31.26693606 -0.69335938 32.80664062 C-0.79915736 36.53766684 -0.90076068 40.26879289 -1 44 C-1.33 44 -1.66 44 -2 44 C-2.66 47.63 -3.32 51.26 -4 55 C-4.33 55 -4.66 55 -5 55 C-5.41650238 35.95409389 -4.21068872 18.53459773 0 0 Z " fill="#213BC1" transform="translate(115,383)"/>
<path d="M0 0 C6.34610865 9.51916297 5.31405459 24.22477463 5.375 35.1875 C5.38869629 36.43313721 5.40239258 37.67877441 5.41650391 38.9621582 C5.37386651 47.7080105 4.14253212 55.53154825 2 64 C1.34 64 0.68 64 0 64 C0.40075504 58.05195153 0.90662256 52.2281666 2.0625 46.375 C3.51467217 38.30737683 3.16327196 30.16359781 3 22 C2.67 22 2.34 22 2 22 C-0.29612756 7.40318907 -0.29612756 7.40318907 0 0 Z " fill="#2F7B2B" transform="translate(296,176)"/>
<path d="M0 0 C0.66 0 1.32 0 2 0 C3.32558382 3.18221191 4.63303547 6.37157908 5.9375 9.5625 C6.31068359 10.45775391 6.68386719 11.35300781 7.06835938 12.27539062 C9.08416861 17.23319172 10.53848753 21.6596414 11 27 C10.01 26.67 9.02 26.34 8 26 C7.0859375 23.890625 7.0859375 23.890625 6.375 21.25 C6.13523437 20.38890625 5.89546875 19.5278125 5.6484375 18.640625 C5.02555299 16.10405916 4.48909223 13.56542714 4 11 C3.34 11 2.68 11 2 11 C0.18214651 15.19504651 -1.02053375 19.48848268 -2.21875 23.890625 C-3 26 -3 26 -5 27 C-4.2350912 21.13033144 -3.11897555 15.36133228 -1.9375 9.5625 C-1.75123047 8.64017578 -1.56496094 7.71785156 -1.37304688 6.76757812 C-0.9171263 4.51135577 -0.4594036 2.25551526 0 0 Z " fill="#1B7D14" transform="translate(285,148)"/>
<path d="M0 0 C2 3 2 3 3 5 C3.99 4.67 4.98 4.34 6 4 C6.33 4.99 6.66 5.98 7 7 C6.01 8.485 6.01 8.485 5 10 C5.66 10.33 6.32 10.66 7 11 C7.33 11.99 7.66 12.98 8 14 C8.66 14 9.32 14 10 14 C10 13.34 10 12.68 10 12 C10.66 12 11.32 12 12 12 C12 14.66666667 12 17.33333333 12 20 C13.32 20 14.64 20 16 20 C17.4606285 22.64738916 18 23.89448334 18 27 C18.94875 27.061875 19.8975 27.12375 20.875 27.1875 C21.90625 27.455625 22.9375 27.72375 24 28 C25.375 30.5625 25.375 30.5625 26 33 C16.38427698 29.73721427 9.84798746 21.35944012 4.375 13.1875 C3.73655151 12.23677612 3.73655151 12.23677612 3.08520508 11.2668457 C0.93324885 7.91429181 -0.6884105 5.01356955 -1 1 C-0.67 0.67 -0.34 0.34 0 0 Z " fill="#0E2EB4" transform="translate(120,468)"/>
<path d="M0 0 C0.9590625 0.2784375 0.9590625 0.2784375 1.9375 0.5625 C2.9584375 0.7790625 2.9584375 0.7790625 4 1 C4.33 0.67 4.66 0.34 5 0 C5.66 0.33 6.32 0.66 7 1 C6.67 1.66 6.34 2.32 6 3 C6.66 3 7.32 3 8 3 C8 3.99 8 4.98 8 6 C8.66 6 9.32 6 10 6 C10 6.66 10 7.32 10 8 C10.66 8 11.32 8 12 8 C12.66 9.98 13.32 11.96 14 14 C14.66 14 15.32 14 16 14 C16 14.99 16 15.98 16 17 C16.66 17 17.32 17 18 17 C18 17.99 18 18.98 18 20 C18.66 20 19.32 20 20 20 C20 21.32 20 22.64 20 24 C20.66 24 21.32 24 22 24 C22.33 25.65 22.66 27.3 23 29 C22.34 29.33 21.68 29.66 21 30 C20.63648438 29.28714844 20.27296875 28.57429688 19.8984375 27.83984375 C16.76567991 21.87153891 13.48051139 17.0139056 9 12 C9 11.34 9 10.68 9 10 C8.34 10 7.68 10 7 10 C5.29115995 8.37660195 3.62553283 6.70680947 2 5 C1.34 4.34 0.68 3.68 0 3 C0 2.01 0 1.02 0 0 Z " fill="#3EAEEB" transform="translate(462,128)"/>
<path d="M0 0 C0.33 0 0.66 0 1 0 C1.08150744 2.06183633 1.1394194 4.12461349 1.1875 6.1875 C1.22230469 7.33605469 1.25710937 8.48460937 1.29296875 9.66796875 C0.97622579 13.27039199 0.08533398 15.09366839 -2 18 C-1.34 18.66 -0.68 19.32 0 20 C-1.87655769 25.1358421 -3.32974539 27.84442256 -8 31 C-7.3966348 25.05447996 -6.2121064 19.55005228 -4.5625 13.8125 C-4.34529297 13.03197266 -4.12808594 12.25144531 -3.90429688 11.44726562 C-2.79867667 7.53277248 -1.61268369 3.74292633 0 0 Z " fill="#3684D3" transform="translate(135,211)"/>
<path d="M0 0 C0.66 0.33 1.32 0.66 2 1 C1.34 2.65 0.68 4.3 0 6 C-0.66 6 -1.32 6 -2 6 C-3.86551426 9.58752742 -5.42535928 13.27812193 -7 17 C-7.66 17 -8.32 17 -9 17 C-9.268125 17.639375 -9.53625 18.27875 -9.8125 18.9375 C-11 21 -11 21 -14 22 C-14.4640625 23.4540625 -14.4640625 23.4540625 -14.9375 24.9375 C-16 28 -16 28 -18.125 29.375 C-18.74375 29.58125 -19.3625 29.7875 -20 30 C-19.38764009 26.87280697 -18.37055924 24.79241029 -16.5234375 22.20703125 C-16.02038086 21.49796631 -15.51732422 20.78890137 -14.99902344 20.05834961 C-14.4630957 19.31721924 -13.92716797 18.57608887 -13.375 17.8125 C-12.83391602 17.05525635 -12.29283203 16.2980127 -11.73535156 15.51782227 C-7.95033666 10.24583722 -4.08300552 5.04624978 0 0 Z " fill="#208E10" transform="translate(254,218)"/>
<path d="M0 0 C1.485 0.99 1.485 0.99 3 2 C3 2.66 3 3.32 3 4 C3.66 4 4.32 4 5 4 C7.99931115 9.22804829 10.74007974 14.40967094 13 20 C12.34 20 11.68 20 11 20 C11 21.32 11 22.64 11 24 C10.34 24 9.68 24 9 24 C8.67 22.68 8.34 21.36 8 20 C7.34 20.66 6.68 21.32 6 22 C5.72736328 20.87464844 5.72736328 20.87464844 5.44921875 19.7265625 C3.81860607 13.08704216 2.03596885 6.52665193 0 0 Z " fill="#3BBAED" transform="translate(457,150)"/>
<path d="M0 0 C1.32 0 2.64 0 4 0 C4 1.32 4 2.64 4 4 C3.01 4 2.02 4 1 4 C1 4.66 1 5.32 1 6 C1.99 6 2.98 6 4 6 C4 7.98 4 9.96 4 12 C4.99 12.33 5.98 12.66 7 13 C7.144375 13.78375 7.28875 14.5675 7.4375 15.375 C7.87798925 17.96421018 7.87798925 17.96421018 9 20 C10.65 20 12.3 20 14 20 C12.95125002 22.62187494 12.35068687 23.79371361 9.875 25.25 C9.25625 25.4975 8.6375 25.745 8 26 C8 24.68 8 23.36 8 22 C7.34 22 6.68 22 6 22 C4.23537317 18.91190305 4 17.76687864 4 14 C3.34 14 2.68 14 2 14 C2 12.02 2 10.04 2 8 C1.34 8 0.68 8 0 8 C0 5.36 0 2.72 0 0 Z " fill="#B7F12E" transform="translate(152,420)"/>
<path d="M0 0 C0.66 0 1.32 0 2 0 C5.51380658 6.65380395 7.8711624 13.44571181 9.8125 20.6875 C10.03123779 21.48260986 10.24997559 22.27771973 10.4753418 23.09692383 C11.79314808 28.20640613 12.21097845 32.72553878 12 38 C11.67 38 11.34 38 11 38 C11 36.02 11 34.04 11 32 C9.515 32.495 9.515 32.495 8 33 C8 28.71 8 24.42 8 20 C7.34 20 6.68 20 6 20 C6 18.35 6 16.7 6 15 C5.34 15 4.68 15 4 15 C2.57741188 11.17679443 1.75957724 8.08718695 2 4 C1.34 4 0.68 4 0 4 C0 2.68 0 1.36 0 0 Z " fill="#35AAE8" transform="translate(504,152)"/>
<path d="M0 0 C2.90708194 2.81898855 5.55974913 5.67856701 8.125 8.8125 C11.83015299 13.13380925 16.16838513 16.22078708 20.83984375 19.43359375 C21.90912109 20.20896484 21.90912109 20.20896484 23 21 C23 21.33 23 21.66 23 22 C21.02 22 19.04 22 17 22 C17 21.34 17 20.68 17 20 C16.38125 19.87625 15.7625 19.7525 15.125 19.625 C13 19 13 19 11 17 C10.34 16.67 9.68 16.34 9 16 C8.67 15.01 8.34 14.02 8 13 C5.49552484 11.78130071 5.49552484 11.78130071 3 11 C3 9.35 3 7.7 3 6 C2.34 6 1.68 6 1 6 C0.67 4.02 0.34 2.04 0 0 Z " fill="#122FB2" transform="translate(127,458)"/>
<path d="M0 0 C0.66 0 1.32 0 2 0 C1.49396008 2.16874252 1.00016187 3.99967627 0 6 C-0.66 6 -1.32 6 -2 6 C-2 6.66 -2 7.32 -2 8 C-2.66 8 -3.32 8 -4 8 C-4.144375 8.61875 -4.28875 9.2375 -4.4375 9.875 C-5 12 -5 12 -6 14 C-6.66 14 -7.32 14 -8 14 C-8 14.66 -8 15.32 -8 16 C-8.66 16 -9.32 16 -10 16 C-10.144375 16.61875 -10.28875 17.2375 -10.4375 17.875 C-11 20 -11 20 -12 22 C-12.66 22 -13.32 22 -14 22 C-14 19.36 -14 16.72 -14 14 C-12.68 14 -11.36 14 -10 14 C-10 13.34 -10 12.68 -10 12 C-9.34 12 -8.68 12 -8 12 C-8 11.34 -8 10.68 -8 10 C-7.34 10 -6.68 10 -6 10 C-6.0825 9.236875 -6.165 8.47375 -6.25 7.6875 C-6 5 -6 5 -4.125 3.1875 C-2 2 -2 2 0 2 C0 1.34 0 0.68 0 0 Z " fill="#8AD722" transform="translate(216,366)"/>
<path d="M0 0 C0.66 0 1.32 0 2 0 C2 0.66 2 1.32 2 2 C2.66 2 3.32 2 4 2 C4.144375 3.134375 4.28875 4.26875 4.4375 5.4375 C4.61171478 8.80777201 4.61171478 8.80777201 6 10 C6.14115161 12.67058851 6.04247107 15.32432238 6 18 C6.66 18 7.32 18 8 18 C8 18.66 8 19.32 8 20 C10.475 20.99 10.475 20.99 13 22 C12.25 26.75 12.25 26.75 10 29 C0 8.33333333 0 8.33333333 0 0 Z " fill="#152EAE" transform="translate(130,310)"/>
<path d="M0 0 C1.32 0 2.64 0 4 0 C4.495 1.485 4.495 1.485 5 3 C-18.58238484 7.77553612 -18.58238484 7.77553612 -30 7 C-26.48873566 3.70873969 -23.65642608 3.56043867 -18.9375 3.375 C-17.60150739 3.31236257 -16.26556941 3.24854933 -14.9296875 3.18359375 C-13.63289063 3.12300781 -12.33609375 3.06242187 -11 3 C-8.85299894 2.82638146 -6.70689413 2.6407997 -4.5625 2.4375 C-3.67691406 2.35371094 -2.79132813 2.26992188 -1.87890625 2.18359375 C-1.25886719 2.12300781 -0.63882813 2.06242187 0 2 C0 1.34 0 0.68 0 0 Z " fill="#102AAE" transform="translate(238,508)"/>
<path d="M0 0 C0.66 0.33 1.32 0.66 2 1 C1.375 3.875 1.375 3.875 0 7 C-1.97395523 7.74023321 -3.98271862 8.38761101 -6 9 C-8.61770403 10.72586796 -11.12380275 12.561603 -13.6328125 14.44140625 C-15.8454297 15.89822846 -17.41550707 16.56528114 -20 17 C-20 16.01 -20 15.02 -20 14 C-17.65625 12.16796875 -17.65625 12.16796875 -14.5 10.1875 C-9.49631847 6.98016385 -4.69295489 3.64394145 0 0 Z " fill="#0F30B2" transform="translate(342,433)"/>
<path d="M0 0 C0.33 0 0.66 0 1 0 C1.28538414 4.76591511 0.4594471 7.91744474 -1.5 12.25 C-3.34809811 15.99192444 -3.34809811 15.99192444 -4 20 C-4.66 20 -5.32 20 -6 20 C-6.12117188 20.62648438 -6.24234375 21.25296875 -6.3671875 21.8984375 C-6.61855469 23.12433594 -6.61855469 23.12433594 -6.875 24.375 C-7.03742188 25.18710937 -7.19984375 25.99921875 -7.3671875 26.8359375 C-8 29 -8 29 -10 31 C-10.99 30.67 -11.98 30.34 -13 30 C-12.48050781 28.83984375 -11.96101563 27.6796875 -11.42578125 26.484375 C-7.50203915 17.70114232 -3.63317694 8.90827038 0 0 Z " fill="#2C7ED8" transform="translate(479,258)"/>
<path d="M0 0 C0.99 0.33 1.98 0.66 3 1 C-3.24245823 4.72960428 -9.57474995 7.7710082 -16.375 10.3125 C-17.05240234 10.56660645 -17.72980469 10.82071289 -18.42773438 11.08251953 C-21.92241718 12.35622578 -25.32734707 13.3973446 -29 14 C-29 13.34 -29 12.68 -29 12 C-27.68 12 -26.36 12 -25 12 C-25 11.34 -25 10.68 -25 10 C-21.5980513 7.90649311 -18.94727588 7.82057837 -15 8 C-15 7.34 -15 6.68 -15 6 C-13.02 5.34 -11.04 4.68 -9 4 C-9 3.34 -9 2.68 -9 2 C-6.94921875 1.77213542 -4.8984375 1.54427083 -2.84765625 1.31640625 C-0.98859771 1.18113386 -0.98859771 1.18113386 0 0 Z " fill="#1330B2" transform="translate(297,488)"/>
<path d="M0 0 C5.17644752 0.88208523 8.4690871 4.30576294 12 8 C13.5 10.9375 13.5 10.9375 14 13 C12.02 13.33 10.04 13.66 8 14 C8 12.02 8 10.04 8 8 C6.68 8.33 5.36 8.66 4 9 C4 8.01 4 7.02 4 6 C2.68 5.34 1.36 4.68 0 4 C0 2.68 0 1.36 0 0 Z " fill="#2B8AD6" transform="translate(224,151)"/>
<path d="M0 0 C0 3.66184524 -0.919642 5.02806 -3 8 C-4.32848691 9.00642948 -5.66150329 10.00692179 -7 11 C-8.26358559 13.06163964 -8.94265274 14.68459008 -9.375 17.0625 C-10.23738442 19.7358917 -11.64127388 20.57046902 -14 22 C-14.66 22 -15.32 22 -16 22 C-16 22.66 -16 23.32 -16 24 C-16.66 24 -17.32 24 -18 24 C-15.75157531 19.2262146 -12.64377765 15.13827596 -9.5625 10.875 C-8.97662109 10.05128906 -8.39074219 9.22757812 -7.78710938 8.37890625 C-7.21927734 7.59128906 -6.65144531 6.80367188 -6.06640625 5.9921875 C-5.55021729 5.27401855 -5.03402832 4.55584961 -4.50219727 3.81591797 C-3 2 -3 2 0 0 Z " fill="#2563C9" transform="translate(429,308)"/>
<path d="M0 0 C8.9878616 2.45123498 14.17026383 11.70401557 19 19 C18.01 19.33 17.02 19.66 16 20 C15.67 19.01 15.34 18.02 15 17 C14.01 16.67 13.02 16.34 12 16 C12 15.34 12 14.68 12 14 C11.34 14 10.68 14 10 14 C10 12.68 10 11.36 10 10 C9.34 10 8.68 10 8 10 C8 9.34 8 8.68 8 8 C7.34 8 6.68 8 6 8 C6 7.34 6 6.68 6 6 C5.34 6 4.68 6 4 6 C4 5.34 4 4.68 4 4 C2.68 4 1.36 4 0 4 C0 2.68 0 1.36 0 0 Z " fill="#36B1F1" transform="translate(484,128)"/>
<path d="M0 0 C0 0.99 0 1.98 0 3 C-4 4.33333333 -8 5.66666667 -12 7 C-12 6.34 -12 5.68 -12 5 C-13.155 5.33 -14.31 5.66 -15.5 6 C-19.77500587 7.08401934 -23.60361453 7.15701377 -28 7 C-28 6.67 -28 6.34 -28 6 C-26.92621094 5.73445313 -25.85242188 5.46890625 -24.74609375 5.1953125 C-23.3098799 4.83860579 -21.87368288 4.48183134 -20.4375 4.125 C-19.73302734 3.95097656 -19.02855469 3.77695312 -18.30273438 3.59765625 C-14.89957975 2.75078828 -11.51900864 1.87114377 -8.15625 0.875 C-5.24905094 0.06904382 -2.99138583 -0.18129611 0 0 Z " fill="#1532B3" transform="translate(256,481)"/>
<path d="M0 0 C0.66 1.32 1.32 2.64 2 4 C1.34 4 0.68 4 0 4 C-0.33 5.32 -0.66 6.64 -1 8 C-1.66 8 -2.32 8 -3 8 C-3.2475 8.639375 -3.495 9.27875 -3.75 9.9375 C-4.1625 10.948125 -4.575 11.95875 -5 13 C-5.27972656 13.73605469 -5.55945313 14.47210938 -5.84765625 15.23046875 C-8.39143776 21.54357832 -8.39143776 21.54357832 -11.75 24.0625 C-12.86375 24.5265625 -12.86375 24.5265625 -14 25 C-13.34371344 21.02367556 -11.37830848 18.1264894 -9.25 14.75 C-8.71246094 13.89208862 -8.71246094 13.89208862 -8.1640625 13.0168457 C-7.11368109 11.34185574 -6.05694894 9.6708535 -5 8 C-3.99919783 6.39633367 -2.99903324 4.79226892 -2 3.1875 C-1.34 2.135625 -0.68 1.08375 0 0 Z " fill="#27881E" transform="translate(270,192)"/>
<path d="M0 0 C0 1.32 0 2.64 0 4 C-1.32 4 -2.64 4 -4 4 C-4 4.66 -4 5.32 -4 6 C-5.33333333 7.33333333 -6.66666667 8.66666667 -8 10 C-8 10.66 -8 11.32 -8 12 C-9.98 12.66 -11.96 13.32 -14 14 C-14 15.98 -14 17.96 -14 20 C-14.66 20 -15.32 20 -16 20 C-16 19.34 -16 18.68 -16 18 C-16.66 18 -17.32 18 -18 18 C-18 18.66 -18 19.32 -18 20 C-18.99 19.67 -19.98 19.34 -21 19 C-17.88307091 15.82530062 -14.75516454 12.66164608 -11.625 9.5 C-10.73554688 8.59378906 -9.84609375 7.68757813 -8.9296875 6.75390625 C-8.07890625 5.89667969 -7.228125 5.03945313 -6.3515625 4.15625 C-5.17327881 2.96225586 -5.17327881 2.96225586 -3.97119141 1.74414062 C-2 0 -2 0 0 0 Z " fill="#0D3DBD" transform="translate(404,380)"/>
<path d="M0 0 C2.97 0 5.94 0 9 0 C5.59402396 3.80770654 1.73008819 6.18867418 -2.625 8.75 C-3.305625 9.16121094 -3.98625 9.57242187 -4.6875 9.99609375 C-9.73725602 13 -9.73725602 13 -12 13 C-12 12.34 -12 11.68 -12 11 C-11.34 10.67 -10.68 10.34 -10 10 C-10 9.34 -10 8.68 -10 8 C-8.02 8 -6.04 8 -4 8 C-3.67 7.01 -3.34 6.02 -3 5 C-2.01 4.67 -1.02 4.34 0 4 C0 2.68 0 1.36 0 0 Z " fill="#102EBC" transform="translate(332,464)"/>
<path d="M0 0 C0 0.99 0 1.98 0 3 C-0.66 3 -1.32 3 -2 3 C-2 3.66 -2 4.32 -2 5 C-2.66 5 -3.32 5 -4 5 C-4 5.66 -4 6.32 -4 7 C-4.66 7 -5.32 7 -6 7 C-6 7.66 -6 8.32 -6 9 C-7.59915881 9.69906942 -9.20455045 10.38389468 -10.8125 11.0625 C-11.70582031 11.44535156 -12.59914063 11.82820313 -13.51953125 12.22265625 C-16 13 -16 13 -19 12 C-16.21373218 9.99239214 -13.42013417 7.99524047 -10.625 6 C-9.8309375 5.42765625 -9.036875 4.8553125 -8.21875 4.265625 C-7.45820313 3.72421875 -6.69765625 3.1828125 -5.9140625 2.625 C-4.8614624 1.87089844 -4.8614624 1.87089844 -3.78759766 1.1015625 C-2 0 -2 0 0 0 Z " fill="#1432B4" transform="translate(328,413)"/>
<path d="M0 0 C0.66 0 1.32 0 2 0 C1.83886719 0.68835938 1.67773438 1.37671875 1.51171875 2.0859375 C0.75772724 6.37966015 0.82431938 10.68589626 0.76953125 15.0390625 C0 18 0 18 -3.05078125 19.8984375 C-4.02402344 20.26195312 -4.99726563 20.62546875 -6 21 C-5.37942343 18.43635601 -4.75370801 15.87415074 -4.125 13.3125 C-3.95097656 12.59126953 -3.77695312 11.87003906 -3.59765625 11.12695312 C-2.64902134 7.27971155 -1.59509159 3.64284431 0 0 Z " fill="#1C87E1" transform="translate(486,236)"/>
<path d="M0 0 C-5.28760699 4.84697307 -11.63450234 5.15521629 -18.46875 4.9765625 C-20.81306136 4.87120019 -23.1568564 4.75374415 -25.5 4.625 C-26.70398438 4.56828125 -27.90796875 4.5115625 -29.1484375 4.453125 C-32.09964071 4.31259151 -35.04986983 4.16127548 -38 4 C-38 3.67 -38 3.34 -38 3 C-30.08 3 -22.16 3 -14 3 C-14 2.34 -14 1.68 -14 1 C-9.32798795 -0.20568053 -4.78503708 -0.09382426 0 0 Z " fill="#1432BC" transform="translate(226,489)"/>
<path d="M0 0 C0 0.66 0 1.32 0 2 C-16.70842825 6.40774487 -16.70842825 6.40774487 -25 7 C-21.92370549 4.949137 -19.07173569 3.75861723 -15.625 2.4375 C-14.50351563 2.00308594 -13.38203125 1.56867188 -12.2265625 1.12109375 C-7.82341772 -0.40881249 -4.5067893 -1.5022631 0 0 Z " fill="#1427B6" transform="translate(254,462)"/>
<path d="M0 0 C1.32 0.33 2.64 0.66 4 1 C2.09026054 2.65450699 0.1729739 4.29850015 -1.75 5.9375 C-2.28882813 6.40607422 -2.82765625 6.87464844 -3.3828125 7.35742188 C-8.37208686 11.58613612 -8.37208686 11.58613612 -12 12 C-12 9.36 -12 6.72 -12 4 C-11.34 4 -10.68 4 -10 4 C-10 4.66 -10 5.32 -10 6 C-8.35 6 -6.7 6 -5 6 C-4.67 4.68 -4.34 3.36 -4 2 C-3.01 2 -2.02 2 -1 2 C-0.67 1.34 -0.34 0.68 0 0 Z " fill="#0F2DB2" transform="translate(364,444)"/>
<path d="M0 0 C1.32 0 2.64 0 4 0 C4 0.66 4 1.32 4 2 C3.34 2 2.68 2 2 2 C2 3.32 2 4.64 2 6 C1.34 6 0.68 6 0 6 C0 7.32 0 8.64 0 10 C-0.66 10 -1.32 10 -2 10 C-2 11.32 -2 12.64 -2 14 C-2.66 14 -3.32 14 -4 14 C-4 15.32 -4 16.64 -4 18 C-4.66 18 -5.32 18 -6 18 C-6 15.36 -6 12.72 -6 10 C-5.34 10 -4.68 10 -4 10 C-4 8.68 -4 7.36 -4 6 C-3.34 6 -2.68 6 -2 6 C-2 5.34 -2 4.68 -2 4 C-1.34 4 -0.68 4 0 4 C0 2.68 0 1.36 0 0 Z " fill="#B3EE33" transform="translate(188,406)"/>
<path d="M0 0 C0.33 0 0.66 0 1 0 C1 2.64 1 5.28 1 8 C1.66 8 2.32 8 3 8 C5.01670288 15.43659188 5.2137731 22.31604457 5 30 C2.84650159 26.34841573 2.12772835 22.49215956 1.375 18.375 C1.24311279 17.66730469 1.11122559 16.95960938 0.9753418 16.23046875 C0.01707838 10.78936609 -0.35868325 5.52637901 0 0 Z " fill="#0D30B7" transform="translate(125,280)"/>
<path d="M0 0 C3.96 0.33 7.92 0.66 12 1 C12 1.33 12 1.66 12 2 C9.36 2 6.72 2 4 2 C4 3.32 4 4.64 4 6 C4.66 6 5.32 6 6 6 C6 6.66 6 7.32 6 8 C7.65 8 9.3 8 11 8 C10.67 8.66 10.34 9.32 10 10 C8.41532272 9.71572583 6.8322943 9.42225182 5.25 9.125 C4.36828125 8.96257812 3.4865625 8.80015625 2.578125 8.6328125 C0.13052256 8.03203736 -1.80599857 7.22002883 -4 6 C-2.68 6 -1.36 6 0 6 C0 4.02 0 2.04 0 0 Z " fill="#44B9EB" transform="translate(434,110)"/>
<path d="M0 0 C1.32 0 2.64 0 4 0 C4 3.33333333 4 6.66666667 4 10 C4.66 10 5.32 10 6 10 C7.33257403 19.41002278 7.33257403 19.41002278 6 24 C5.67 24 5.34 24 5 24 C4.35216876 21.12543719 3.70667482 18.25038241 3.0625 15.375 C2.88009766 14.56675781 2.69769531 13.75851563 2.50976562 12.92578125 C1.54955437 8.63101819 0.66903081 4.35222151 0 0 Z " fill="#4FB3E7" transform="translate(484,158)"/>
<path d="M0 0 C2.64 0.33 5.28 0.66 8 1 C8 1.66 8 2.32 8 3 C10.97 3 13.94 3 17 3 C17 3.66 17 4.32 17 5 C17.99 5.33 18.98 5.66 20 6 C19 7 19 7 16.1875 7.4375 C10.26397203 7.42510768 5.04158362 3.78156338 0 1 C0 0.67 0 0.34 0 0 Z " fill="#0D2EBA" transform="translate(149,503)"/>
<path d="M0 0 C0.33 0 0.66 0 1 0 C0.42100187 6.59525453 -0.79734737 12.6891618 -2.5625 19.0625 C-2.79646484 19.92810547 -3.03042969 20.79371094 -3.27148438 21.68554688 C-3.8417334 23.79197695 -4.42001834 25.89622889 -5 28 C-5.33 28 -5.66 28 -6 28 C-6 24.7 -6 21.4 -6 18 C-5.34 18 -4.68 18 -4 18 C-4 16.02 -4 14.04 -4 12 C-3.34 12 -2.68 12 -2 12 C-2 9.36 -2 6.72 -2 4 C-1.34 4 -0.68 4 0 4 C0 2.68 0 1.36 0 0 Z " fill="#1D85DC" transform="translate(512,228)"/>
<path d="M0 0 C0 3 0 3 -1 6 C-1.66 6 -2.32 6 -3 6 C-3.2475 6.5775 -3.495 7.155 -3.75 7.75 C-5.18299988 10.32939979 -6.78424676 12.06121592 -9 14 C-9.66 14 -10.32 14 -11 14 C-11 14.66 -11 15.32 -11 16 C-12.32 15.67 -13.64 15.34 -15 15 C-10.05 10.05 -5.1 5.1 0 0 Z " fill="#F2F2F2" transform="translate(417,400)"/>
<path d="M0 0 C2.475 0.99 2.475 0.99 5 2 C3.23265063 7.58110327 2.08902088 10.69901348 -3 14 C-2.48594831 9.03083364 -1.76615118 4.70973649 0 0 Z " fill="#246FC6" transform="translate(130,228)"/>
<path d="M0 0 C0.33 0 0.66 0 1 0 C1.3690205 16.8929385 1.3690205 16.8929385 -1 24 C-1.66 24 -2.32 24 -3 24 C-2.45423097 15.89963866 -1.45852964 7.98651182 0 0 Z " fill="#1E8711" transform="translate(299,216)"/>
<path d="M0 0 C0.99 0.66 1.98 1.32 3 2 C-1.35260233 4.24224969 -4.25693783 3.82091461 -9 3 C-9.33 3.33 -9.66 3.66 -10 4 C-12.33297433 4.04092937 -14.66705225 4.04241723 -17 4 C-16 2 -16 2 -13.5625 0.875 C-9.03525251 -0.23695552 -4.64094781 -0.54317461 0 0 Z " fill="#34A4E5" transform="translate(218,148)"/>
<path d="M0 0 C1.14275391 0.14888672 1.14275391 0.14888672 2.30859375 0.30078125 C4.5625 0.6875 4.5625 0.6875 6.42578125 1.1953125 C9.37449983 1.87454201 12.29603181 2.03884723 15.3125 2.25 C16.48296875 2.33378906 17.6534375 2.41757812 18.859375 2.50390625 C19.75140625 2.56449219 20.6434375 2.62507812 21.5625 2.6875 C21.5625 3.0175 21.5625 3.3475 21.5625 3.6875 C1.59439066 4.0565205 1.59439066 4.0565205 -7.4375 1.6875 C-4.14453201 -0.50781199 -3.68779625 -0.5161671 0 0 Z " fill="#0E26B5" transform="translate(185.4375,512.3125)"/>
<path d="M0 0 C0.66 0 1.32 0 2 0 C2 0.66 2 1.32 2 2 C3.32 2 4.64 2 6 2 C7.4606285 4.64738916 8 5.89448334 8 9 C9.423125 9.0928125 9.423125 9.0928125 10.875 9.1875 C11.90625 9.455625 12.9375 9.72375 14 10 C15.375 12.5625 15.375 12.5625 16 15 C11.51168839 13.54765785 8.65505534 11.22368498 5.1875 8.0625 C4.21167969 7.18722656 3.23585937 6.31195313 2.23046875 5.41015625 C0 3 0 3 0 0 Z " fill="#263CB6" transform="translate(130,486)"/>
<path d="M0 0 C0.66 0.33 1.32 0.66 2 1 C0.8125 3.875 0.8125 3.875 -1 7 C-2.2684375 7.495 -2.2684375 7.495 -3.5625 8 C-6.35259609 8.80956294 -6.35259609 8.80956294 -7.3125 12.125 C-7.6528125 13.548125 -7.6528125 13.548125 -8 15 C-8.99 14.67 -9.98 14.34 -11 14 C-8.30076284 7.73776979 -5.47200293 4.05788982 0 0 Z " fill="#2E8DE2" transform="translate(199,152)"/>
<path d="M0 0 C2.77867692 2.77867692 2.65193902 5.1713292 3 9 C2.67 9.33 2.34 9.66 2 10 C1.84344973 11.48638992 1.74933057 12.97949127 1.68359375 14.47265625 C1.64169922 15.37177734 1.59980469 16.27089844 1.55664062 17.19726562 C1.51732422 18.14279297 1.47800781 19.08832031 1.4375 20.0625 C1.39431641 21.01189453 1.35113281 21.96128906 1.30664062 22.93945312 C1.20020724 25.29281353 1.09818992 27.64628354 1 30 C1.99 30.33 2.98 30.66 4 31 C2.68 31.33 1.36 31.66 0 32 C0 21.44 0 10.88 0 0 Z " fill="#0B2FB6" transform="translate(369,210)"/>
<path d="M0 0 C-2.78230428 1.85486952 -4.84363607 2.72462112 -8 3.6875 C-8.86625 3.95949219 -9.7325 4.23148437 -10.625 4.51171875 C-13 5 -13 5 -16 4 C-15.34 4 -14.68 4 -14 4 C-14 3.34 -14 2.68 -14 2 C-14.66 2 -15.32 2 -16 2 C-16 1.34 -16 0.68 -16 0 C-14.14375 0.0309375 -14.14375 0.0309375 -12.25 0.0625 C-9.90696493 0.07075012 -8.03052344 0.00763086 -5.75 -0.5625 C-3.55559342 -1.11110164 -2.12569402 -0.68325879 0 0 Z " fill="#0C2CB1" transform="translate(262,504)"/>
<path d="M0 0 C0.33 0 0.66 0 1 0 C1 2.64 1 5.28 1 8 C0.34 8 -0.32 8 -1 8 C-1 8.66 -1 9.32 -1 10 C-2.32 10 -3.64 10 -5 10 C-5 10.66 -5 11.32 -5 12 C-6.32 12.33 -7.64 12.66 -9 13 C-7.51222697 9.74035658 -5.64333184 7.06830707 -3.4375 4.25 C-2.81746094 3.45078125 -2.19742188 2.6515625 -1.55859375 1.828125 C-0.78708984 0.92320312 -0.78708984 0.92320312 0 0 Z " fill="#EEF2F0" transform="translate(183,272)"/>
<path d="M0 0 C0.66 0 1.32 0 2 0 C2 0.66 2 1.32 2 2 C2.66 2 3.32 2 4 2 C4 2.99 4 3.98 4 5 C4.66 5 5.32 5 6 5 C6 5.99 6 6.98 6 8 C6.66 8 7.32 8 8 8 C8 9.32 8 10.64 8 12 C8.66 12 9.32 12 10 12 C10.33 13.65 10.66 15.3 11 17 C10.34 17.33 9.68 17.66 9 18 C8.60167969 17.25234375 8.20335937 16.5046875 7.79296875 15.734375 C7.26316406 14.74953125 6.73335938 13.7646875 6.1875 12.75 C5.66542969 11.77546875 5.14335937 10.8009375 4.60546875 9.796875 C3.10238996 7.02472107 3.10238996 7.02472107 1.30078125 4.828125 C0 3 0 3 0 0 Z " fill="#29ABEB" transform="translate(474,140)"/>
<path d="M0 0 C-2.62214328 1.50519387 -5.24744208 3.00431319 -7.875 4.5 C-8.62136719 4.92925781 -9.36773437 5.35851562 -10.13671875 5.80078125 C-10.85214844 6.20683594 -11.56757813 6.61289062 -12.3046875 7.03125 C-12.96452637 7.40830078 -13.62436523 7.78535156 -14.30419922 8.17382812 C-16 9 -16 9 -18 9 C-18 8.34 -18 7.68 -18 7 C-16.68 6.67 -15.36 6.34 -14 6 C-14 5.34 -14 4.68 -14 4 C-13.34 4 -12.68 4 -12 4 C-12 3.34 -12 2.68 -12 2 C-10.68 2 -9.36 2 -8 2 C-7.67 1.34 -7.34 0.68 -7 0 C-3.86650268 -1.04449911 -3.01031744 -0.93423645 0 0 Z " fill="#0E30AA" transform="translate(320,478)"/>
<path d="M0 0 C-1.134375 0.433125 -2.26875 0.86625 -3.4375 1.3125 C-5.2009375 2.1478125 -5.2009375 2.1478125 -7 3 C-7.33 3.99 -7.66 4.98 -8 6 C-10.72633694 7.10213621 -13.04144033 8 -16 8 C-16 7.34 -16 6.68 -16 6 C-16.99 5.67 -17.98 5.34 -19 5 C-16.39985473 3.96772138 -13.79573631 2.94894848 -11.1875 1.9375 C-10.44951172 1.64294922 -9.71152344 1.34839844 -8.95117188 1.04492188 C-3.33984375 -1.11328125 -3.33984375 -1.11328125 0 0 Z " fill="#1735AC" transform="translate(276,474)"/>
<path d="M0 0 C2 1 2 1 3.125 4.0625 C3.41375 5.031875 3.7025 6.00125 4 7 C3.34 7 2.68 7 2 7 C2 8.32 2 9.64 2 11 C1.34 11 0.68 11 0 11 C-0.33 9.68 -0.66 8.36 -1 7 C-1.66 7.66 -2.32 8.32 -3 9 C-3.33 7.02 -3.66 5.04 -4 3 C-3.34 3 -2.68 3 -2 3 C-2 2.34 -2 1.68 -2 1 C-1.34 0.67 -0.68 0.34 0 0 Z " fill="#4AB8E6" transform="translate(466,163)"/>
<path d="M0 0 C0.33 0.66 0.66 1.32 1 2 C0.01 2.66 -0.98 3.32 -2 4 C-1.67 4.99 -1.34 5.98 -1 7 C-8.47826087 9.60869565 -8.47826087 9.60869565 -12 10 C-12.66 9.34 -13.32 8.68 -14 8 C-9.38 5.36 -4.76 2.72 0 0 Z " fill="#1232AC" transform="translate(319,449)"/>
<path d="M0 0 C1.32 0 2.64 0 4 0 C4.45496035 5.76283104 2.79099852 10.60568303 1 16 C0.67 16 0.34 16 0 16 C0 10.72 0 5.44 0 0 Z " fill="#B0F220" transform="translate(176,430)"/>
<path d="M0 0 C0.33 0 0.66 0 1 0 C1 1.98 1 3.96 1 6 C0.01 6.33 -0.98 6.66 -2 7 C-2.0825 7.7425 -2.165 8.485 -2.25 9.25 C-3.14809799 12.54302595 -4.38416074 13.85976788 -7 16 C-7.66 16 -8.32 16 -9 16 C-8.37011862 11.94513862 -6.26959988 9.10576554 -4 5.75 C-3.278125 4.67234375 -2.55625 3.5946875 -1.8125 2.484375 C-1.214375 1.66453125 -0.61625 0.8446875 0 0 Z " fill="#1E61CE" transform="translate(447,322)"/>
<path d="M0 0 C0.33 0 0.66 0 1 0 C1.03758423 0.92111572 1.03758423 0.92111572 1.07592773 1.86083984 C1.19345264 4.69902634 1.31545526 7.5370044 1.4375 10.375 C1.47681641 11.34050781 1.51613281 12.30601562 1.55664062 13.30078125 C1.82980822 19.56262312 2.30323128 25.77097309 3 32 C2.67 31.34 2.34 30.68 2 30 C1.34 30 0.68 30 0 30 C-0.16728213 25.88850113 -0.32787468 21.77680194 -0.48217773 17.66479492 C-0.53566026 16.26498319 -0.59099434 14.86524096 -0.64819336 13.46557617 C-0.72992949 11.4577104 -0.80453025 9.44955813 -0.87890625 7.44140625 C-0.9260376 6.23170166 -0.97316895 5.02199707 -1.02172852 3.77563477 C-1 1 -1 1 0 0 Z " fill="#7399C6" transform="translate(154,178)"/>
<path d="M0 0 C2.96676187 1.05231297 3.89604626 1.81780739 5.484375 4.6015625 C5.90203125 5.59929687 6.3196875 6.59703125 6.75 7.625 C7.17796875 8.62789062 7.6059375 9.63078125 8.046875 10.6640625 C8.36140625 11.43492187 8.6759375 12.20578125 9 13 C8.01 13.495 8.01 13.495 7 14 C3.28576708 10.79807507 1.6675749 7.58583098 0 3 C0 2.01 0 1.02 0 0 Z " fill="#1036B3" transform="translate(188,180)"/>
<path d="M0 0 C0.99 0.33 1.98 0.66 3 1 C1.69161864 3.002807 0.37857806 5.00226099 -0.9375 7 C-1.49727539 7.85851562 -1.49727539 7.85851562 -2.06835938 8.734375 C-3.01944589 10.17385729 -4.00694276 11.58914489 -5 13 C-5.33 13 -5.66 13 -6 13 C-6.50341475 7.7141451 -5.26910671 5.13445849 -2 1 C-1.34 0.67 -0.68 0.34 0 0 Z " fill="#0F33B5" transform="translate(162,295)"/>
<path d="M0 0 C0.66 0.33 1.32 0.66 2 1 C1.34 2.65 0.68 4.3 0 6 C-0.66 6 -1.32 6 -2 6 C-2.28875 6.5775 -2.5775 7.155 -2.875 7.75 C-3.91666667 9.83333333 -4.95833333 11.91666667 -6 14 C-7.32 13.67 -8.64 13.34 -10 13 C-5.05 6.565 -5.05 6.565 0 0 Z " fill="#258819" transform="translate(254,218)"/>
<path d="M0 0 C0.99 0 1.98 0 3 0 C1.59790456 4.07415167 -0.34447678 6.98279823 -3.0625 10.3125 C-3.77535156 11.19550781 -4.48820312 12.07851563 -5.22265625 12.98828125 C-5.80917969 13.65214844 -6.39570313 14.31601562 -7 15 C-7.33 15 -7.66 15 -8 15 C-8 13.35 -8 11.7 -8 10 C-7.34 10 -6.68 10 -6 10 C-6 9.34 -6 8.68 -6 8 C-5.34 8 -4.68 8 -4 8 C-4 7.01 -4 6.02 -4 5 C-2.68 4.67 -1.36 4.34 0 4 C0 2.68 0 1.36 0 0 Z " fill="#1F59C6" transform="translate(424,328)"/>
<path d="M0 0 C6.35583327 0.86670454 12.67551301 1.93034128 19 3 C19 3.33 19 3.66 19 4 C16.58303128 4.05411124 14.16728213 4.09372278 11.75 4.125 C11.06808594 4.14175781 10.38617188 4.15851563 9.68359375 4.17578125 C5.9391765 4.21213482 3.17647273 4.07944349 0 2 C0 1.34 0 0.68 0 0 Z " fill="#162DA5" transform="translate(201,197)"/>
<path d="M0 0 C2.43818936 3.65728405 2.6716692 6.93287895 3.125 11.1875 C3.21136719 11.93708984 3.29773438 12.68667969 3.38671875 13.45898438 C3.59838382 15.30517412 3.80015464 17.15249344 4 19 C3.34 19 2.68 19 2 19 C-0.04898287 14.78103134 -0.21207997 11.34627854 -0.125 6.6875 C-0.10695313 5.43324219 -0.08890625 4.17898437 -0.0703125 2.88671875 C-0.03550781 1.45779297 -0.03550781 1.45779297 0 0 Z " fill="#3BAAE7" transform="translate(472,177)"/>
<path d="M0 0 C1 3 1 3 1 5 C-0.74985354 5.47970123 -2.49988891 5.95873924 -4.25 6.4375 C-5.22453125 6.70433594 -6.1990625 6.97117187 -7.203125 7.24609375 C-9.46372653 7.85544584 -11.72622009 8.44238255 -14 9 C-9.7045025 5.25876024 -5.00099548 2.65848126 0 0 Z " fill="#132FAE" transform="translate(285,441)"/>
<path d="M0 0 C1.32 0 2.64 0 4 0 C2.49087042 4.98012761 -0.55661849 8.24259942 -4 12 C-4.66 11.34 -5.32 10.68 -6 10 C-5.01 9.67 -4.02 9.34 -3 9 C-2.67 6.69 -2.34 4.38 -2 2 C-1.34 2 -0.68 2 0 2 C0 1.34 0 0.68 0 0 Z " fill="#1141BC" transform="translate(172,280)"/>
<path d="M0 0 C1.98 0 3.96 0 6 0 C6 0.66 6 1.32 6 2 C7.32 2 8.64 2 10 2 C10 2.66 10 3.32 10 4 C11.32 4 12.64 4 14 4 C14 4.66 14 5.32 14 6 C14.66 6 15.32 6 16 6 C16.33 7.32 16.66 8.64 17 10 C16.19175781 9.51789063 15.38351562 9.03578125 14.55078125 8.5390625 C13.48214844 7.90742187 12.41351563 7.27578125 11.3125 6.625 C10.25675781 5.99851562 9.20101563 5.37203125 8.11328125 4.7265625 C5.442809 3.24557287 2.86067949 2.05086185 0 1 C0 0.67 0 0.34 0 0 Z " fill="#3ABBF0" transform="translate(444,120)"/>
<path d="M0 0 C3.63 0 7.26 0 11 0 C12.24546405 2.49092811 11.7767578 3.41080733 11 6 C9.02 6 7.04 6 5 6 C5 5.34 5 4.68 5 4 C6.32 4 7.64 4 9 4 C9 3.34 9 2.68 9 2 C6.36 2 3.72 2 1 2 C0.67 1.34 0.34 0.68 0 0 Z " fill="#12B8F9" transform="translate(423,110)"/>
<path d="M0 0 C1.32 0 2.64 0 4 0 C4.66 1.98 5.32 3.96 6 6 C6.66 6 7.32 6 8 6 C8 7.98 8 9.96 8 12 C7.34 12 6.68 12 6 12 C6 10.68 6 9.36 6 8 C5.34 8 4.68 8 4 8 C4 7.34 4 6.68 4 6 C3.34 6 2.68 6 2 6 C2 4.68 2 3.36 2 2 C1.34 2 0.68 2 0 2 C0 1.34 0 0.68 0 0 Z " fill="#B3F31B" transform="translate(162,446)"/>
<path d="M0 0 C0.66 0 1.32 0 2 0 C2 5.28 2 10.56 2 16 C1.34 16 0.68 16 0 16 C0 15.34 0 14.68 0 14 C-0.66 14 -1.32 14 -2 14 C-1.67 13.01 -1.34 12.02 -1 11 C-0.77820215 9.10787263 -0.59385985 7.21115528 -0.4375 5.3125 C-0.35371094 4.31863281 -0.26992187 3.32476562 -0.18359375 2.30078125 C-0.12300781 1.54152344 -0.06242188 0.78226562 0 0 Z " fill="#AEF504" transform="translate(174,448)"/>
<path d="M0 0 C0.66 0 1.32 0 2 0 C2.33 0.99 2.66 1.98 3 3 C1.6905332 4.33631236 0.37734515 5.66897925 -0.9375 7 C-2.03384766 8.11375 -2.03384766 8.11375 -3.15234375 9.25 C-5 11 -5 11 -6 11 C-6 9.35 -6 7.7 -6 6 C-5.34 6 -4.68 6 -4 6 C-4 5.34 -4 4.68 -4 4 C-3.34 4 -2.68 4 -2 4 C-2 3.34 -2 2.68 -2 2 C-1.34 2 -0.68 2 0 2 C0 1.34 0 0.68 0 0 Z " fill="#1A48B8" transform="translate(390,368)"/>
<path d="M0 0 C0 3 0 3 -1.28515625 4.6484375 C-5.29444044 8.54317071 -9.36175374 11.87628313 -14 15 C-14.66 14.67 -15.32 14.34 -16 14 C-10.74557475 9.23363401 -5.49783089 4.48507257 0 0 Z " fill="#DFE2F1" transform="translate(385,430)"/>
<path d="M0 0 C1.1796875 1.640625 1.1796875 1.640625 2 4 C0.8828125 6.796875 0.8828125 6.796875 -0.875 9.75 C-1.44992188 10.73484375 -2.02484375 11.7196875 -2.6171875 12.734375 C-3.07351562 13.48203125 -3.52984375 14.2296875 -4 15 C-4.66 14.67 -5.32 14.34 -6 14 C-4.50829734 9.0276578 -2.39542583 4.58154261 0 0 Z " fill="#0E30BB" transform="translate(148,316)"/>
<path d="M0 0 C0.66 0.33 1.32 0.66 2 1 C1.21527835 3.29426252 0.42261339 5.58522223 -0.375 7.875 C-0.59671875 8.52597656 -0.8184375 9.17695313 -1.046875 9.84765625 C-2.06962626 12.76550545 -2.78556651 14.78556651 -5 17 C-5.33 15.35 -5.66 13.7 -6 12 C-5.34 12 -4.68 12 -4 12 C-4 10.68 -4 9.36 -4 8 C-3.34 8 -2.68 8 -2 8 C-1.855625 7.236875 -1.71125 6.47375 -1.5625 5.6875 C-1 3 -1 3 0 0 Z " fill="#257ED7" transform="translate(502,264)"/>
<path d="M0 0 C1 3 1 3 -0.07421875 5.26171875 C-0.60660156 6.06222656 -1.13898438 6.86273438 -1.6875 7.6875 C-2.46673828 8.89986328 -2.46673828 8.89986328 -3.26171875 10.13671875 C-3.83535156 10.75160156 -4.40898437 11.36648437 -5 12 C-6.32 12 -7.64 12 -9 12 C-8.67 11.34 -8.34 10.68 -8 10 C-7.34 10 -6.68 10 -6 10 C-6 8.68 -6 7.36 -6 6 C-4.68 6 -3.36 6 -2 6 C-2 4.68 -2 3.36 -2 2 C-1.34 2 -0.68 2 0 2 C0 1.34 0 0.68 0 0 Z " fill="#1231B0" transform="translate(238,182)"/>
<path d="M0 0 C0.86963087 2.99706695 1.11763099 5.64956526 1.09765625 8.765625 C1.09443359 9.65507812 1.09121094 10.54453125 1.08789062 11.4609375 C1.07951172 12.38132812 1.07113281 13.30171875 1.0625 14.25 C1.05798828 15.18585938 1.05347656 16.12171875 1.04882812 17.0859375 C1.03706918 19.39069041 1.02063426 21.69531227 1 24 C0.34 24 -0.32 24 -1 24 C-1 23.34 -1 22.68 -1 22 C-1.66 22 -2.32 22 -3 22 C-3 21.34 -3 20.68 -3 20 C-2.34 20 -1.68 20 -1 20 C-1.01160156 18.72382813 -1.02320313 17.44765625 -1.03515625 16.1328125 C-1.04453417 14.46354313 -1.05363437 12.79427217 -1.0625 11.125 C-1.07087891 10.28324219 -1.07925781 9.44148438 -1.08789062 8.57421875 C-1.09111328 7.76855469 -1.09433594 6.96289062 -1.09765625 6.1328125 C-1.10289307 5.38918457 -1.10812988 4.64555664 -1.11352539 3.87939453 C-1 2 -1 2 0 0 Z " fill="#DFF0BE" transform="translate(177,444)"/>
<path d="M0 0 C-0.50642192 4.35522853 -1.38411497 7.44239635 -4 11 C-4.66 11 -5.32 11 -6 11 C-6 9.68 -6 8.36 -6 7 C-5.34 7 -4.68 7 -4 7 C-4 5.02 -4 3.04 -4 1 C-2 0 -2 0 0 0 Z " fill="#2D9817" transform="translate(286,269)"/>
<path d="M0 0 C0.66 0.33 1.32 0.66 2 1 C-0.79196011 4.28465896 -4.23196817 6.01321958 -8 8 C-8.66 8 -9.32 8 -10 8 C-10 8.66 -10 9.32 -10 10 C-10.66 10 -11.32 10 -12 10 C-12 10.66 -12 11.32 -12 12 C-13.32 11.34 -14.64 10.68 -16 10 C-13.38321437 8.29948946 -10.75537761 6.61689493 -8.125 4.9375 C-7.37863281 4.45216797 -6.63226563 3.96683594 -5.86328125 3.46679688 C-5.14785156 3.01240234 -4.43242187 2.55800781 -3.6953125 2.08984375 C-3.03547363 1.66566162 -2.37563477 1.24147949 -1.69580078 0.80444336 C-1.13618652 0.53897705 -0.57657227 0.27351074 0 0 Z " fill="#DCE1EE" transform="translate(338,466)"/>
<path d="M0 0 C-1.36687222 3.98671063 -3.15195093 6.88494633 -6 10 C-6.66 10 -7.32 10 -8 10 C-7.66666667 8.66666667 -7.33333333 7.33333333 -7 6 C-6.896875 5.29875 -6.79375 4.5975 -6.6875 3.875 C-6 2 -6 2 -4.0625 0.75 C-2 0 -2 0 0 0 Z " fill="#41A61D" transform="translate(272,296)"/>
<path d="M0 0 C0.66 0 1.32 0 2 0 C0.32971708 3.94794145 -2.1795565 6.81796118 -5 10 C-5.33 10 -5.66 10 -6 10 C-6 8.02 -6 6.04 -6 4 C-5.34 4 -4.68 4 -4 4 C-4 3.34 -4 2.68 -4 2 C-2.68 2 -1.36 2 0 2 C0 1.34 0 0.68 0 0 Z " fill="#134DBB" transform="translate(406,352)"/>
<path d="M0 0 C0.99 0.33 1.98 0.66 3 1 C1.21118264 2.00508801 -0.58114696 3.00392736 -2.375 4 C-3.37273437 4.556875 -4.37046875 5.11375 -5.3984375 5.6875 C-8 7 -8 7 -10 7 C-10.33 6.01 -10.66 5.02 -11 4 C-10.34 4 -9.68 4 -9 4 C-9 3.34 -9 2.68 -9 2 C-6.94921875 1.77213542 -4.8984375 1.54427083 -2.84765625 1.31640625 C-0.98859771 1.18113386 -0.98859771 1.18113386 0 0 Z " fill="#1B38B0" transform="translate(297,488)"/>
<path d="M0 0 C-1.05752393 3.17257179 -1.81707929 3.90853965 -4.875 5.4375 C-8 6 -8 6 -10.1953125 4.53515625 C-10.79085938 4.02855469 -11.38640625 3.52195312 -12 3 C-10.3789897 2.30314502 -8.75303934 1.61777139 -7.125 0.9375 C-6.22007812 0.55464844 -5.31515625 0.17179687 -4.3828125 -0.22265625 C-2 -1 -2 -1 0 0 Z " fill="#E1E9F0" transform="translate(278,456)"/>
<path d="M0 0 C-2.75170751 2.9555377 -5.41970299 5.11563315 -9 7 C-9.66 7 -10.32 7 -11 7 C-11 6.34 -11 5.68 -11 5 C-10.34 5 -9.68 5 -9 5 C-9 4.34 -9 3.68 -9 3 C-8.34 3 -7.68 3 -7 3 C-7 2.34 -7 1.68 -7 1 C-3.375 -1.125 -3.375 -1.125 0 0 Z " fill="#E0E9EC" transform="translate(331,441)"/>
<path d="M0 0 C0.66 0 1.32 0 2 0 C1.49396008 2.16874252 1.00016187 3.99967627 0 6 C-0.66 6 -1.32 6 -2 6 C-2 6.66 -2 7.32 -2 8 C-3.32 8 -4.64 8 -6 8 C-5.8125 6.125 -5.8125 6.125 -5 4 C-2.4375 2.75 -2.4375 2.75 0 2 C0 1.34 0 0.68 0 0 Z " fill="#81CE23" transform="translate(216,366)"/>
<path d="M0 0 C1.73169596 3.1622274 2.7128976 6.26742722 3.625 9.75 C3.88539063 10.73484375 4.14578125 11.7196875 4.4140625 12.734375 C4.60742188 13.48203125 4.80078125 14.2296875 5 15 C3.68 14.67 2.36 14.34 1 14 C1 11.36 1 8.72 1 6 C0.34 6 -0.32 6 -1 6 C-0.67 4.02 -0.34 2.04 0 0 Z " fill="#D6DEE5" transform="translate(129,310)"/>
<path d="M0 0 C0.99 0.33 1.98 0.66 3 1 C1.68 3.64 0.36 6.28 -1 9 C-1.99 8.34 -2.98 7.68 -4 7 C-4.1875 4.375 -4.1875 4.375 -4 2 C-2.68 2.33 -1.36 2.66 0 3 C0 2.01 0 1.02 0 0 Z " fill="#1F6AD1" transform="translate(480,310)"/>
<path d="M0 0 C-0.33 0.99 -0.66 1.98 -1 3 C-7.11980533 4.40454548 -12.71739294 5.23268915 -19 5 C-19 4.67 -19 4.34 -19 4 C-16.39688008 3.32900016 -13.79264602 2.66304662 -11.1875 2 C-10.44951172 1.80921875 -9.71152344 1.6184375 -8.95117188 1.421875 C-5.89464659 0.64737086 -3.16626522 0 0 0 Z " fill="#2C3EA9" transform="translate(247,483)"/>
<path d="M0 0 C0.66 0 1.32 0 2 0 C2 0.66 2 1.32 2 2 C2.66 2 3.32 2 4 2 C4.33 5.3 4.66 8.6 5 12 C4.67 11.34 4.34 10.68 4 10 C3.34 10 2.68 10 2 10 C0.68373308 6.38026598 0 3.90432869 0 0 Z " fill="#0C2DBD" transform="translate(130,310)"/>
<path d="M0 0 C1.71017726 2.5652659 2.90417811 4.87960965 4.125 7.6875 C4.47820312 8.49574219 4.83140625 9.30398437 5.1953125 10.13671875 C5.46085938 10.75160156 5.72640625 11.36648437 6 12 C4.68 12 3.36 12 2 12 C2 10.68 2 9.36 2 8 C1.34 8 0.68 8 0 8 C-1.125 2.25 -1.125 2.25 0 0 Z " fill="#307CD4" transform="translate(160,218)"/>
<path d="M0 0 C0.66 0 1.32 0 2 0 C2.99 2.64 3.98 5.28 5 8 C3.35 8.33 1.7 8.66 0 9 C-1.53445094 5.93109813 -0.54984289 3.29905734 0 0 Z " fill="#3E863F" transform="translate(285,148)"/>
<path d="M0 0 C0.9590625 0.2784375 0.9590625 0.2784375 1.9375 0.5625 C2.9584375 0.7790625 2.9584375 0.7790625 4 1 C4.33 0.67 4.66 0.34 5 0 C5.66 0.33 6.32 0.66 7 1 C6.67 1.66 6.34 2.32 6 3 C6.66 3.33 7.32 3.66 8 4 C7.34 4 6.68 4 6 4 C6 4.66 6 5.32 6 6 C3.13275314 5.42655063 2.1385485 5.1385485 0 3 C0 2.01 0 1.02 0 0 Z " fill="#30B4F2" transform="translate(462,128)"/>
<path d="M0 0 C2.64 0 5.28 0 8 0 C8 0.66 8 1.32 8 2 C6.68 2 5.36 2 4 2 C4 2.66 4 3.32 4 4 C0.7 3.67 -2.6 3.34 -6 3 C-6 2.67 -6 2.34 -6 2 C-4.02 2 -2.04 2 0 2 C0 1.34 0 0.68 0 0 Z " fill="#4CB7E7" transform="translate(424,112)"/>
<path d="M0 0 C1.32 0 2.64 0 4 0 C4.33 0.99 4.66 1.98 5 3 C-0.36095333 4.12862175 -5.55306686 4.09688221 -11 4 C-11 3.67 -11 3.34 -11 3 C-5.555 2.505 -5.555 2.505 0 2 C0 1.34 0 0.68 0 0 Z " fill="#1233B4" transform="translate(238,508)"/>
<path d="M0 0 C1.0625 1.875 1.0625 1.875 2 4 C1.67 4.66 1.34 5.32 1 6 C0.64080679 7.99551782 0.30503431 9.99548879 0 12 C-0.66 12 -1.32 12 -2 12 C-2.33 12.66 -2.66 13.32 -3 14 C-2.28547412 9.23649415 -1.20465156 4.65798604 0 0 Z " fill="#A6E14B" transform="translate(153,372)"/>
<path d="M0 0 C0.66 0.33 1.32 0.66 2 1 C2 1.66 2 2.32 2 3 C2.66 3.33 3.32 3.66 4 4 C3.38125 4.2475 2.7625 4.495 2.125 4.75 C-0.35068687 6.20628639 -0.95125002 7.37812506 -2 10 C-2.33 10 -2.66 10 -3 10 C-3.36629408 5.72656908 -2.40814077 3.51187196 0 0 Z " fill="#84CF34" transform="translate(163,347)"/>
<path d="M0 0 C0.66 0 1.32 0 2 0 C4.24828052 4.49656104 4.16682272 8.07872966 4 13 C3.67 13 3.34 13 3 13 C3 11.02 3 9.04 3 7 C2.01 7.33 1.02 7.66 0 8 C0 5.36 0 2.72 0 0 Z " fill="#46B0EE" transform="translate(512,177)"/>
<path d="M0 0 C4.43090471 1.20842856 6.98112756 2.51668565 10 6 C8.68 6 7.36 6 6 6 C6 5.34 6 4.68 6 4 C5.38125 4.185625 4.7625 4.37125 4.125 4.5625 C2 5 2 5 0 4 C0 2.68 0 1.36 0 0 Z " fill="#3BB8EF" transform="translate(472,120)"/>
<path d="M0 0 C0.66 0 1.32 0 2 0 C2 0.66 2 1.32 2 2 C2.66 2 3.32 2 4 2 C4.33 3.32 4.66 4.64 5 6 C3.35 6.66 1.7 7.32 0 8 C0 5.36 0 2.72 0 0 Z " fill="#0B33BC" transform="translate(352,448)"/>
<path d="M0 0 C0.33 0.66 0.66 1.32 1 2 C1.66 2 2.32 2 3 2 C3 2.66 3 3.32 3 4 C2.34 4 1.68 4 1 4 C0.34 5.32 -0.32 6.64 -1 8 C-1.99 8 -2.98 8 -4 8 C-2.87548273 5.0280615 -1.77706209 2.66559313 0 0 Z " fill="#E1EEF4" transform="translate(475,324)"/>
<path d="M0 0 C1.06546953 3.1964086 1.07427838 5.65747276 1 9 C-3 9 -3 9 -5 8 C-3.35 5.36 -1.7 2.72 0 0 Z " fill="#69BD28" transform="translate(179,319)"/>
<path d="M0 0 C2.0625 0.4375 2.0625 0.4375 4 1 C3.01 1.33 2.02 1.66 1 2 C-0.20882096 4.00016466 -0.20882096 4.00016466 -1 6 C-2.65 6 -4.3 6 -6 6 C-4 4 -2 2 0 0 Z " fill="#1E38B7" transform="translate(351,426)"/>
<path d="M0 0 C-0.34879632 3.25543229 -1.02133261 4.01873107 -3.5625 6.25 C-4.366875 6.8275 -5.17125 7.405 -6 8 C-6.36458333 3.50347222 -6.36458333 3.50347222 -4.6875 1.1875 C-3 0 -3 0 0 0 Z " fill="#1A44C0" transform="translate(430,384)"/>
<path d="M0 0 C0.99 0.33 1.98 0.66 3 1 C3 1.66 3 2.32 3 3 C2.34 3 1.68 3 1 3 C1 3.66 1 4.32 1 5 C-1.90548882 7.04169485 -3.40142046 8 -7 8 C-5.625 6 -5.625 6 -4 4 C-3.34 4 -2.68 4 -2 4 C-1.34 2.68 -0.68 1.36 0 0 Z " fill="#E6ECF3" transform="translate(397,365)"/>
<path d="M0 0 C1.32 0 2.64 0 4 0 C2.68775452 3.93673644 1.08089673 6.22719294 -2 9 C-2 7.35 -2 5.7 -2 4 C-1.34 4 -0.68 4 0 4 C0 2.68 0 1.36 0 0 Z " fill="#1D66CC" transform="translate(434,312)"/>
<path d="M0 0 C1.12894876 0.93274109 2.25300876 1.87140122 3.375 2.8125 C4.00148437 3.33457031 4.62796875 3.85664063 5.2734375 4.39453125 C7 6 7 6 9 9 C8.01 9.33 7.02 9.66 6 10 C5.38125 9.195625 4.7625 8.39125 4.125 7.5625 C2.25835959 4.96125481 2.25835959 4.96125481 0 4 C0 2.68 0 1.36 0 0 Z " fill="#3669CA" transform="translate(178,248)"/>
<path d="M0 0 C2 2 2 2 2.1953125 3.9453125 C2.13020833 5.96354167 2.06510417 7.98177083 2 10 C1.01 10.495 1.01 10.495 0 11 C-0.66 10.67 -1.32 10.34 -2 10 C-1.34 6.7 -0.68 3.4 0 0 Z " fill="#2F96E3" transform="translate(462,230)"/>
<path d="M0 0 C0.99 0.33 1.98 0.66 3 1 C1.79743762 4.42267755 0.66526328 6.55684199 -2 9 C-2.66 9.99 -3.32 10.98 -4 12 C-3.45660208 7.43545749 -2.20536179 4.0271824 0 0 Z " fill="#148111" transform="translate(276,180)"/>
<path d="M0 0 C2.64 0.33 5.28 0.66 8 1 C8 1.66 8 2.32 8 3 C8.99 3.33 9.98 3.66 11 4 C11 4.66 11 5.32 11 6 C6.95743617 4.77782954 3.50711041 3.37245704 0 1 C0 0.67 0 0.34 0 0 Z " fill="#1935B0" transform="translate(149,503)"/>
<path d="M0 0 C0.33 0.99 0.66 1.98 1 3 C1.66 3.33 2.32 3.66 3 4 C-0.26545761 5.88391785 -3.28111761 6.49287967 -7 7 C-6.34 6.01 -5.68 5.02 -5 4 C-4.34 4 -3.68 4 -3 4 C-3 3.34 -3 2.68 -3 2 C-2.01 1.34 -1.02 0.68 0 0 Z " fill="#1435B7" transform="translate(360,385)"/>
<path d="M0 0 C0.33 0 0.66 0 1 0 C1.10824843 1.6026782 1.18570645 3.20745748 1.25 4.8125 C1.29640625 5.70582031 1.3428125 6.59914062 1.390625 7.51953125 C1 10 1 10 -3 13 C-2.01 8.71 -1.02 4.42 0 0 Z " fill="#3D8DD4" transform="translate(483,244)"/>
<path d="M0 0 C0.75 1.625 0.75 1.625 1 4 C-0.8125 7.25 -0.8125 7.25 -3 10 C-3.66 10 -4.32 10 -5 10 C-4.38545304 6.00544473 -2.29353263 3.25533664 0 0 Z " fill="#2E9319" transform="translate(239,238)"/>
<path d="M0 0 C0.99 0.33 1.98 0.66 3 1 C1.71480435 3.86697492 0.42870746 5.97607712 -2 8 C-2.66 8 -3.32 8 -4 8 C-4 7.01 -4 6.02 -4 5 C-3.01 5 -2.02 5 -1 5 C-0.67 3.35 -0.34 1.7 0 0 Z " fill="#1D3CC1" transform="translate(401,411)"/>
<path d="M0 0 C0.33 0 0.66 0 1 0 C1.3125 2.25 1.3125 2.25 1 5 C-1.5 7.3125 -1.5 7.3125 -4 9 C-4.66 8.34 -5.32 7.68 -6 7 C-5.02433888 5.83040013 -4.044375 4.66438823 -3.0625 3.5 C-2.51722656 2.8503125 -1.97195313 2.200625 -1.41015625 1.53125 C-0.71212891 0.77328125 -0.71212891 0.77328125 0 0 Z " fill="#1C50BF" transform="translate(411,369)"/>
<path d="M0 0 C0.66 0.66 1.32 1.32 2 2 C-0.31 4.31 -2.62 6.62 -5 9 C-5.66 8.67 -6.32 8.34 -7 8 C-7 7.34 -7 6.68 -7 6 C-5.46875 4.4921875 -5.46875 4.4921875 -3.5 2.875 C-2.8503125 2.33617187 -2.200625 1.79734375 -1.53125 1.2421875 C-1.0259375 0.83226562 -0.520625 0.42234375 0 0 Z " fill="#D0DAEE" transform="translate(377,366)"/>
<path d="M0 0 C0.66 0 1.32 0 2 0 C2 0.66 2 1.32 2 2 C2.66 2 3.32 2 4 2 C4 3.32 4 4.64 4 6 C2.02 6 0.04 6 -2 6 C-2 5.34 -2 4.68 -2 4 C-1.34 4 -0.68 4 0 4 C0 2.68 0 1.36 0 0 Z " fill="#1054D0" transform="translate(410,336)"/>
<path d="M0 0 C1.32 0.33 2.64 0.66 4 1 C2.02 5.455 2.02 5.455 0 10 C-0.66 10 -1.32 10 -2 10 C-2 9.34 -2 8.68 -2 8 C-1.34 8 -0.68 8 0 8 C0 5.36 0 2.72 0 0 Z " fill="#2276D5" transform="translate(490,288)"/>
<path d="M0 0 C1 4 1 4 0.00390625 5.703125 C-1.33072917 7.13541667 -2.66536458 8.56770833 -4 10 C-4.99 9.67 -5.98 9.34 -7 9 C-4.69 6.03 -2.38 3.06 0 0 Z " fill="#59A934" transform="translate(205,282)"/>
<path d="M0 0 C0.99 0.33 1.98 0.66 3 1 C-2.14285714 6.57142857 -2.14285714 6.57142857 -6 7 C-6 6.34 -6 5.68 -6 5 C-5.34 4.67 -4.68 4.34 -4 4 C-4 3.34 -4 2.68 -4 2 C-2.68 2 -1.36 2 0 2 C0 1.34 0 0.68 0 0 Z " fill="#0F2CAE" transform="translate(348,456)"/>
<path d="M0 0 C1.32 0.33 2.64 0.66 4 1 C0.535 3.97 0.535 3.97 -3 7 C-3.33 6.01 -3.66 5.02 -4 4 C-3.67 3.34 -3.34 2.68 -3 2 C-2.34 2 -1.68 2 -1 2 C-0.67 1.34 -0.34 0.68 0 0 Z " fill="#1734B4" transform="translate(388,424)"/>
<path d="M0 0 C1.65 0 3.3 0 5 0 C4.07347299 1.17539996 3.13336613 2.34010577 2.1875 3.5 C1.66542969 4.1496875 1.14335937 4.799375 0.60546875 5.46875 C-1 7 -1 7 -4 7 C-3.34 6.401875 -2.68 5.80375 -2 5.1875 C0.3373846 3.12498166 0.3373846 3.12498166 0 0 Z " fill="#082DB5" transform="translate(354,424)"/>
<path d="M0 0 C0.33 0 0.66 0 1 0 C1.25 2.3125 1.25 2.3125 1 5 C-0.8125 6.875 -0.8125 6.875 -3 8 C-3.99 7.67 -4.98 7.34 -6 7 C-5.02433888 5.83040013 -4.044375 4.66438823 -3.0625 3.5 C-2.51722656 2.8503125 -1.97195313 2.200625 -1.41015625 1.53125 C-0.71212891 0.77328125 -0.71212891 0.77328125 0 0 Z " fill="#2859C9" transform="translate(423,355)"/>
<path d="M0 0 C1 3 1 3 1 5 C-0.65002828 6.35386936 -2.3174387 7.68678142 -4 9 C-4.33 9.66 -4.66 10.32 -5 11 C-5.66 10.67 -6.32 10.34 -7 10 C-3.535 5.05 -3.535 5.05 0 0 Z " fill="#E1E9F4" transform="translate(431,323)"/>
<path d="M0 0 C0.33 0 0.66 0 1 0 C1.08075665 2.29109597 1.13907731 4.58299267 1.1875 6.875 C1.22230469 8.15117187 1.25710938 9.42734375 1.29296875 10.7421875 C1.19628906 11.81726563 1.09960938 12.89234375 1 14 C0.01 14.66 -0.98 15.32 -2 16 C-1.34 10.72 -0.68 5.44 0 0 Z " fill="#5298D4" transform="translate(489,216)"/>
<path d="M0 0 C2.475 0.495 2.475 0.495 5 1 C5.33 1.99 5.66 2.98 6 4 C4.02 4.33 2.04 4.66 0 5 C0 3.35 0 1.7 0 0 Z " fill="#1F7DDB" transform="translate(232,160)"/>
<path d="M0 0 C-1.72492978 0.53469802 -3.455198 1.05219175 -5.1875 1.5625 C-6.63189453 1.99755859 -6.63189453 1.99755859 -8.10546875 2.44140625 C-11.12752588 3.02461026 -13.05929955 2.81178385 -16 2 C-16 1.67 -16 1.34 -16 1 C-14.0852312 0.63571223 -12.16807707 0.28394694 -10.25 -0.0625 C-9.18265625 -0.25972656 -8.1153125 -0.45695313 -7.015625 -0.66015625 C-4.25228095 -0.97156937 -2.59053383 -0.8991416 0 0 Z " fill="#C0C7E0" transform="translate(237,513)"/>
<path d="M0 0 C1.32 0 2.64 0 4 0 C4.125 2.875 4.125 2.875 4 6 C3.34 6.66 2.68 7.32 2 8 C2 6.68 2 5.36 2 4 C1.34 4 0.68 4 0 4 C0 2.68 0 1.36 0 0 Z " fill="#B4F037" transform="translate(176,430)"/>
<path d="M0 0 C0.66 0 1.32 0 2 0 C0.52307692 5.66153846 0.52307692 5.66153846 -2.125 7.375 C-3.053125 7.684375 -3.053125 7.684375 -4 8 C-4 6.68 -4 5.36 -4 4 C-3.34 4 -2.68 4 -2 4 C-2 3.34 -2 2.68 -2 2 C-1.34 2 -0.68 2 0 2 C0 1.34 0 0.68 0 0 Z " fill="#88D715" transform="translate(158,366)"/>
<path d="M0 0 C0 3.60777515 -0.9904432 5.06295544 -3 8 C-3.99 8.495 -3.99 8.495 -5 9 C-4.50769231 3.46153846 -4.50769231 3.46153846 -1.9375 1.125 C-1.298125 0.75375 -0.65875 0.3825 0 0 Z " fill="#1463D7" transform="translate(429,308)"/>
<path d="M0 0 C2.475 0.99 2.475 0.99 5 2 C4.67 3.32 4.34 4.64 4 6 C2.68 6 1.36 6 0 6 C0 4.02 0 2.04 0 0 Z " fill="#1671D6" transform="translate(130,228)"/>
<path d="M0 0 C2.31 0 4.62 0 7 0 C1.85714286 4.42857143 1.85714286 4.42857143 -2 5 C-2 4.34 -2 3.68 -2 3 C-1.34 2.67 -0.68 2.34 0 2 C0 1.34 0 0.68 0 0 Z " fill="#1331AB" transform="translate(322,472)"/>
<path d="M0 0 C0 0.33 0 0.66 0 1 C-1.74784829 1.36463732 -3.49840502 1.7163078 -5.25 2.0625 C-6.71179688 2.35833984 -6.71179688 2.35833984 -8.203125 2.66015625 C-10.868119 2.98397535 -12.48871723 2.85503199 -15 2 C-9.32010626 -0.49118146 -6.05525768 -1.38766322 0 0 Z " fill="#3B489F" transform="translate(244,466)"/>
<path d="M0 0 C2.18975773 3.28463659 2.99806563 6.20696275 4 10 C3.34 10.66 2.68 11.32 2 12 C0.00214565 7.8794254 -0.17835515 4.54805635 0 0 Z " fill="#092FB9" transform="translate(116,457)"/>
<path d="M0 0 C0.99 0 1.98 0 3 0 C3.99 2.31 4.98 4.62 6 7 C4 6 2 5 0 4 C0 2.68 0 1.36 0 0 Z " fill="#1132AF" transform="translate(118,445)"/>
<path d="M0 0 C0.99 0.33 1.98 0.66 3 1 C1.02 3.97 1.02 3.97 -1 7 C-1.99 6.67 -2.98 6.34 -4 6 C-1.125 1.125 -1.125 1.125 0 0 Z " fill="#183BBB" transform="translate(376,405)"/>
<path d="M0 0 C0.33 0.99 0.66 1.98 1 3 C-0.4375 5.1875 -0.4375 5.1875 -2 7 C-3.32 6.67 -4.64 6.34 -6 6 C-4.02 4.02 -2.04 2.04 0 0 Z " fill="#2556C0" transform="translate(389,356)"/>
<path d="M0 0 C0.99 0.66 1.98 1.32 3 2 C1.02 4.97 1.02 4.97 -1 8 C-1.66 7.34 -2.32 6.68 -3 6 C-2.75 3.4375 -2.75 3.4375 -2 1 C-1.34 0.67 -0.68 0.34 0 0 Z " fill="#E7F0F4" transform="translate(427,345)"/>
<path d="M0 0 C0.66 0.33 1.32 0.66 2 1 C2 2.32 2 3.64 2 5 C0.02 5.99 0.02 5.99 -2 7 C-2.33 6.01 -2.66 5.02 -3 4 C-1.5625 1.8125 -1.5625 1.8125 0 0 Z " fill="#206CCF" transform="translate(434,298)"/>
<path d="M0 0 C0.33 0 0.66 0 1 0 C0.03644647 9.41002278 0.03644647 9.41002278 -1 14 C-1.33 14 -1.66 14 -2 14 C-2 10.7 -2 7.4 -2 4 C-1.34 4 -0.68 4 0 4 C0 2.68 0 1.36 0 0 Z " fill="#3388D2" transform="translate(512,228)"/>
<path d="M0 0 C0.99 0 1.98 0 3 0 C4 3 4 3 3 6 C1.68 6 0.36 6 -1 6 C-0.67 4.02 -0.34 2.04 0 0 Z " fill="#2A7BD7" transform="translate(131,222)"/>
<path d="M0 0 C0.66 0 1.32 0 2 0 C2.33 3.3 2.66 6.6 3 10 C2.67 9.34 2.34 8.68 2 8 C1.34 8 0.68 8 0 8 C0 5.36 0 2.72 0 0 Z " fill="#2C8FE1" transform="translate(154,200)"/>
<path d="M0 0 C0.75 1.5625 0.75 1.5625 1 4 C-0.13084437 6.50286409 -1.52139516 8.67007722 -3 11 C-3.66 11 -4.32 11 -5 11 C-3.77472971 6.94718288 -2.30119506 3.55639236 0 0 Z " fill="#4698DC" transform="translate(145,191)"/>
<path d="M0 0 C1.39195915 4.17587745 -0.17676781 6.13474776 -2 10 C-2.99 9.67 -3.98 9.34 -5 9 C-4.3566152 7.686298 -3.71021785 6.37407102 -3.0625 5.0625 C-2.70285156 4.33160156 -2.34320313 3.60070312 -1.97265625 2.84765625 C-1 1 -1 1 0 0 Z " fill="#3B82D3" transform="translate(193,157)"/>
<path d="M0 0 C1.11375 0.3403125 1.11375 0.3403125 2.25 0.6875 C2.58 1.6775 2.91 2.6675 3.25 3.6875 C-0.05 3.3575 -3.35 3.0275 -6.75 2.6875 C-2.75 -0.3125 -2.75 -0.3125 0 0 Z " fill="#172E9E" transform="translate(253.75,459.3125)"/>
<path d="M0 0 C0.33 0 0.66 0 1 0 C2.97094808 4.92737019 3.1799928 8.78020872 3 14 C0.48073099 9.12941325 -0.10395221 5.50946709 0 0 Z " fill="#112CA1" transform="translate(127,296)"/>
<path d="M0 0 C0.66 0.33 1.32 0.66 2 1 C0.68 3.97 -0.64 6.94 -2 10 C-2.99 10 -3.98 10 -5 10 C-3.35 6.7 -1.7 3.4 0 0 Z " fill="#3074CD" transform="translate(465,290)"/>
<path d="M0 0 C1 4 1 4 0.0625 6.25 C-0.4634375 7.11625 -0.4634375 7.11625 -1 8 C-2.32 7.67 -3.64 7.34 -5 7 C-3.35 4.69 -1.7 2.38 0 0 Z " fill="#3F8E30" transform="translate(249,224)"/>
<path d="M0 0 C1.5 1.1875 1.5 1.1875 3 3 C3.1875 5.6875 3.1875 5.6875 3 8 C2.01 7.67 1.02 7.34 0 7 C-0.38133299 5.0085944 -0.71325582 3.00720923 -1 1 C-0.67 0.67 -0.34 0.34 0 0 Z " fill="#2D8626" transform="translate(293,167)"/>
<path d="M0 0 C1.32 0.33 2.64 0.66 4 1 C3.34 1.66 2.68 2.32 2 3 C2 3.99 2 4.98 2 6 C2 6.99 2 7.98 2 9 C1.34 9.66 0.68 10.32 0 11 C0 7.37 0 3.74 0 0 Z " fill="#31B4F5" transform="translate(368,149)"/>
<path d="M0 0 C0.66 0.33 1.32 0.66 2 1 C0.90716423 2.03295436 -0.19970579 3.05107835 -1.3125 4.0625 C-1.92738281 4.63097656 -2.54226563 5.19945312 -3.17578125 5.78515625 C-3.77777344 6.18605469 -4.37976563 6.58695312 -5 7 C-5.99 6.67 -6.98 6.34 -8 6 C-5.36 4.02 -2.72 2.04 0 0 Z " fill="#DDE4F0" transform="translate(354,455)"/>
<path d="M0 0 C0.99 0 1.98 0 3 0 C3 1.65 3 3.3 3 5 C3.99 5.33 4.98 5.66 6 6 C4.02 6.33 2.04 6.66 0 7 C0.33 6.34 0.66 5.68 1 5 C0.72057545 3.32345271 0.39171753 1.65391846 0 0 Z " fill="#132EAB" transform="translate(263,453)"/>
<path d="M0 0 C2.1519437 3.22791555 2.20086443 4.28400809 2 8 C1.01 7.67 0.02 7.34 -1 7 C-1.04254356 5.00045254 -1.04080783 2.99958364 -1 1 C-0.67 0.67 -0.34 0.34 0 0 Z " fill="#1D39B9" transform="translate(117,435)"/>
<path d="M0 0 C1.65 0 3.3 0 5 0 C0.25 4.875 0.25 4.875 -2 6 C-1.49396008 3.83125748 -1.00016187 2.00032373 0 0 Z " fill="#0F2DAA" transform="translate(378,432)"/>
<path d="M0 0 C0 0.99 0 1.98 0 3 C-0.66 3 -1.32 3 -2 3 C-2 3.66 -2 4.32 -2 5 C-3.65 5 -5.3 5 -7 5 C-2.25 0 -2.25 0 0 0 Z " fill="#122AA9" transform="translate(328,413)"/>
<path d="M0 0 C0.33 0 0.66 0 1 0 C1 1.98 1 3.96 1 6 C-0.65 6.66 -2.3 7.32 -4 8 C-2.87548273 5.0280615 -1.77706209 2.66559313 0 0 Z " fill="#2D62C8" transform="translate(447,322)"/>
<path d="M0 0 C0.99 0 1.98 0 3 0 C1.8141763 3.37503669 0.72426311 5.64722731 -2 8 C-2.20086443 4.28400809 -2.1519437 3.22791555 0 0 Z " fill="#152FAE" transform="translate(152,310)"/>
<path d="M0 0 C0.99 0.33 1.98 0.66 3 1 C1.35 3.64 -0.3 6.28 -2 9 C-2.66 8.67 -3.32 8.34 -4 8 C-4 7.34 -4 6.68 -4 6 C-3.34 6 -2.68 6 -2 6 C-2 5.34 -2 4.68 -2 4 C-1.34 4 -0.68 4 0 4 C0 2.68 0 1.36 0 0 Z " fill="#246BD0" transform="translate(444,298)"/>
<path d="M0 0 C0.66 0 1.32 0 2 0 C1.6875 2.875 1.6875 2.875 1 6 C0.01 6.66 -0.98 7.32 -2 8 C-1.125 2.25 -1.125 2.25 0 0 Z " fill="#2371D8" transform="translate(438,290)"/>
<path d="M0 0 C-1 1 -1 1 -2.84765625 1.09765625 C-4.8984375 1.06510417 -6.94921875 1.03255208 -9 1 C-9 0.34 -9 -0.32 -9 -1 C-5.22102349 -2.0497157 -3.35080929 -2.10976881 0 0 Z " fill="#DBEEF2" transform="translate(385,117)"/>
<path d="M0 0 C2.875 0.1875 2.875 0.1875 6 1 C7.375 3.5625 7.375 3.5625 8 6 C4.08597051 4.73058503 2.20927127 3.48832306 0 0 Z " fill="#0E2CB1" transform="translate(138,495)"/>
<path d="M0 0 C-1 3 -1 3 -3.375 4.3125 C-4.24125 4.539375 -5.1075 4.76625 -6 5 C-6.99 4.34 -7.98 3.68 -9 3 C-2.25 0 -2.25 0 0 0 Z " fill="#0E33C4" transform="translate(276,474)"/>
<path d="M0 0 C2 1 2 1 3 3 C-1.75 6 -1.75 6 -4 6 C-3.67 5.01 -3.34 4.02 -3 3 C-2.01 2.67 -1.02 2.34 0 2 C0 1.34 0 0.68 0 0 Z " fill="#0A2BB3" transform="translate(332,466)"/>
<path d="M0 0 C1.98 0.495 1.98 0.495 4 1 C4 2.65 4 4.3 4 6 C3.34 6 2.68 6 2 6 C1.67 5.01 1.34 4.02 1 3 C0.34 2.67 -0.32 2.34 -1 2 C-0.67 1.34 -0.34 0.68 0 0 Z " fill="#072DC0" transform="translate(304,458)"/>
<path d="M0 0 C1.32 0 2.64 0 4 0 C4 1.32 4 2.64 4 4 C3.01 4 2.02 4 1 4 C0.67 4.66 0.34 5.32 0 6 C0 4.02 0 2.04 0 0 Z " fill="#ADF318" transform="translate(152,420)"/>
<path d="M0 0 C1.32 0 2.64 0 4 0 C3.34 1.98 2.68 3.96 2 6 C1.34 6 0.68 6 0 6 C0 4.02 0 2.04 0 0 Z " fill="#99E01F" transform="translate(194,394)"/>
<path d="M0 0 C0.6875 1.8125 0.6875 1.8125 1 4 C-0.4375 5.75 -0.4375 5.75 -2 7 C-2.33 5.35 -2.66 3.7 -3 2 C-2.01 1.34 -1.02 0.68 0 0 Z " fill="#1C63CF" transform="translate(469,330)"/>
<path d="M0 0 C0.66 0 1.32 0 2 0 C0.125 4.75 0.125 4.75 -1 7 C-1.66 7 -2.32 7 -3 7 C-3 5.68 -3 4.36 -3 3 C-2.34 3 -1.68 3 -1 3 C-0.67 2.01 -0.34 1.02 0 0 Z " fill="#329C12" transform="translate(275,287)"/>
<path d="M0 0 C0.66 0.33 1.32 0.66 2 1 C2 2.32 2 3.64 2 5 C1.34 5 0.68 5 0 5 C-0.66 6.32 -1.32 7.64 -2 9 C-2.33 8.34 -2.66 7.68 -3 7 C-2.06421005 4.64018187 -1.06652192 2.30368736 0 0 Z " fill="#E4ECF2" transform="translate(462,267)"/>
<path d="M0 0 C0.66 0 1.32 0 2 0 C1.125 5.75 1.125 5.75 0 8 C-0.66 8 -1.32 8 -2 8 C-2 6.68 -2 5.36 -2 4 C-1.34 4 -0.68 4 0 4 C0 2.68 0 1.36 0 0 Z " fill="#20960A" transform="translate(288,260)"/>
<path d="M0 0 C1.39195915 4.17587745 -0.17676781 6.13474776 -2 10 C-2.66 10 -3.32 10 -4 10 C-3.29445932 6.33118845 -1.72264494 3.29549466 0 0 Z " fill="#2C8B18" transform="translate(294,248)"/>
<path d="M0 0 C1.9375 0.3125 1.9375 0.3125 4 1 C4.33 1.99 4.66 2.98 5 4 C3.35 4.33 1.7 4.66 0 5 C0 3.35 0 1.7 0 0 Z " fill="#2498E1" transform="translate(224,151)"/>
<path d="M0 0 C2.52588702 2.36292656 3.88820837 3.66462511 5 7 C4.01 7 3.02 7 2 7 C1.67 6.01 1.34 5.02 1 4 C0.01 3.67 -0.98 3.34 -2 3 C-2 2.34 -2 1.68 -2 1 C-1.34 0.67 -0.68 0.34 0 0 Z " fill="#38ADE6" transform="translate(498,141)"/>
<path d="M0 0 C1.32 0.33 2.64 0.66 4 1 C1.37801226 3.15377564 -0.64404172 4.40072174 -4 5 C-4 4.34 -4 3.68 -4 3 C-2.68 2.67 -1.36 2.34 0 2 C0 1.34 0 0.68 0 0 Z " fill="#1130B9" transform="translate(306,482)"/>
<path d="M0 0 C0 0.66 0 1.32 0 2 C-2.64 2 -5.28 2 -8 2 C-6.14210462 -1.71579076 -3.44525918 -1.06921837 0 0 Z " fill="#152EC9" transform="translate(254,462)"/>
<path d="M0 0 C0.66 0 1.32 0 2 0 C1.875 1.875 1.875 1.875 1 4 C-2.0625 5.25 -2.0625 5.25 -5 6 C-3.38405168 3.95880212 -1.7143618 1.95927063 0 0 Z " fill="#1437B1" transform="translate(366,379)"/>
<path d="M0 0 C0.66 0.33 1.32 0.66 2 1 C1.67 2.32 1.34 3.64 1 5 C-0.32 5 -1.64 5 -3 5 C-2.01 3.35 -1.02 1.7 0 0 Z " fill="#235FCD" transform="translate(436,338)"/>
<path d="M0 0 C0.33 1.32 0.66 2.64 1 4 C-1.97 6.475 -1.97 6.475 -5 9 C-3.7508258 5.54074837 -2.32472205 2.85306797 0 0 Z " fill="#D9E7EF" transform="translate(441,308)"/>
<path d="M0 0 C0.33 0 0.66 0 1 0 C1.3125 2.75 1.3125 2.75 1 6 C-1.5 8.375 -1.5 8.375 -4 10 C-2.66666667 6.66666667 -1.33333333 3.33333333 0 0 Z " fill="#DAEBF9" transform="translate(455,282)"/>
<path d="M0 0 C0.66 0 1.32 0 2 0 C1.34 1.98 0.68 3.96 0 6 C-1.32 5.67 -2.64 5.34 -4 5 C-2.71937515 3.2925002 -1.38232443 1.62626404 0 0 Z " fill="#359B1D" transform="translate(224,258)"/>
<path d="M0 0 C5.75 1.75 5.75 1.75 8 4 C6.02 4 4.04 4 2 4 C1.34 2.68 0.68 1.36 0 0 Z " fill="#47BAEE" transform="translate(464,116)"/>
<path d="M0 0 C0.66 0 1.32 0 2 0 C2 1.32 2 2.64 2 4 C0.02 4 -1.96 4 -4 4 C-4 3.34 -4 2.68 -4 2 C-2.68 2 -1.36 2 0 2 C0 1.34 0 0.68 0 0 Z " fill="#1EB7F4" transform="translate(432,112)"/>
</svg>
